<?xml version="1.0" encoding="UTF-8"?>
<!DOCTYPE svg PUBLIC "-//W3C//DTD SVG 1.1//EN" "http://www.w3.org/Graphics/SVG/1.1/DTD/svg11.dtd">
<svg version="1.1" xmlns="http://www.w3.org/2000/svg" xmlns:xlink="http://www.w3.org/1999/xlink" x="0" y="0" width="500" height="500" viewBox="0, 0, 500, 500">
  <g id="Layer_1">
    <g id="g3854">
      <g id="rect6114">
        <path d="M137.927,30.51 L361.447,30.51 C393.452,30.51 419.397,56.455 419.397,88.459 L419.397,411.541 C419.397,443.545 393.452,469.49 361.447,469.49 L137.927,469.49 C105.923,469.49 79.978,443.545 79.978,411.541 L79.978,88.459 C79.978,56.455 105.923,30.51 137.927,30.51 z" fill="#FFFFFF"/>
        <path d="M137.927,30.51 L361.447,30.51 C393.452,30.51 419.397,56.455 419.397,88.459 L419.397,411.541 C419.397,443.545 393.452,469.49 361.447,469.49 L137.927,469.49 C105.923,469.49 79.978,443.545 79.978,411.541 L79.978,88.459 C79.978,56.455 105.923,30.51 137.927,30.51 z" fill-opacity="0" stroke="#FFFFFF" stroke-width="8.104"/>
      </g>
      <g id="rect5367-4">
        <path d="M141.36,155.814 L357.854,155.814 C386.33,155.814 409.415,178.899 409.415,207.376 L409.415,410.067 C409.415,438.544 386.33,461.629 357.854,461.629 L141.36,461.629 C112.883,461.629 89.798,438.544 89.798,410.067 L89.798,207.376 C89.798,178.899 112.883,155.814 141.36,155.814 z" fill="#FFFFFF"/>
        <path d="M141.36,155.814 L357.854,155.814 C386.33,155.814 409.415,178.899 409.415,207.376 L409.415,410.067 C409.415,438.544 386.33,461.629 357.854,461.629 L141.36,461.629 C112.883,461.629 89.798,438.544 89.798,410.067 L89.798,207.376 C89.798,178.899 112.883,155.814 141.36,155.814 z" fill-opacity="0" stroke="#565656" stroke-width="10.534" stroke-linecap="round" stroke-linejoin="round"/>
      </g>
      <g id="rect5367-4-8">
        <path d="M142.439,278.151 L356.65,278.151 C379.905,278.151 398.758,297.003 398.758,320.259 L398.758,411.217 C398.758,434.473 379.905,453.325 356.65,453.325 L142.439,453.325 C119.184,453.325 100.331,434.473 100.331,411.217 L100.331,320.259 C100.331,297.003 119.184,278.151 142.439,278.151 z" fill="#F18F34"/>
        <path d="M142.439,278.151 L356.65,278.151 C379.905,278.151 398.758,297.003 398.758,320.259 L398.758,411.217 C398.758,434.473 379.905,453.325 356.65,453.325 L142.439,453.325 C119.184,453.325 100.331,434.473 100.331,411.217 L100.331,320.259 C100.331,297.003 119.184,278.151 142.439,278.151 z" fill-opacity="0" stroke="#FFFFFF" stroke-width="8.227" stroke-linecap="round" stroke-linejoin="round"/>
      </g>
      <g id="rect5367">
        <path d="M136.036,38.793 L363.177,38.793 C388.714,38.793 409.415,61.878 409.415,90.355 L409.415,293.046 C409.415,321.523 388.714,344.608 363.177,344.608 L136.036,344.608 C110.499,344.608 89.798,321.523 89.798,293.046 L89.798,90.355 C89.798,61.878 110.499,38.793 136.036,38.793 z" fill="#565656"/>
        <path d="M136.036,38.793 L363.177,38.793 C388.714,38.793 409.415,61.878 409.415,90.355 L409.415,293.046 C409.415,321.523 388.714,344.608 363.177,344.608 L136.036,344.608 C110.499,344.608 89.798,321.523 89.798,293.046 L89.798,90.355 C89.798,61.878 110.499,38.793 136.036,38.793 z" fill-opacity="0" stroke="#565656" stroke-width="10.025" stroke-linecap="round" stroke-linejoin="round"/>
      </g>
      <g id="path5466">
        <path d="M88.816,319.374 L94.247,400.705 C93.591,373.161 94.394,346.441 169.907,348.641 L167.932,297.074 z" fill="#565656"/>
        <path d="M88.816,319.374 L94.247,400.705 C93.591,373.161 94.394,346.441 169.907,348.641 L167.932,297.074 z" fill-opacity="0" stroke="#565656" stroke-width="1.491"/>
      </g>
      <path d="M100.255,392.878 C101.228,368.365 109.589,346.987 170.096,347.976 L355.834,347.976 C391.079,347.445 415.263,328.309 419.961,295.473" fill-opacity="0" stroke="#FFFFFF" stroke-width="8.227" stroke-linecap="round" stroke-linejoin="round" id="path5470"/>
    </g>
    <g id="flowRoot3862">
      <path d="M146.131,169.512 C143.881,169.512 141.031,168.913 139.081,170.262 C136.231,172.062 136.531,176.713 139.531,178.213 C141.181,178.963 143.431,178.663 145.231,178.663 L157.081,178.663 C159.031,178.663 161.581,179.113 163.381,178.062 C166.081,176.262 166.081,171.613 163.081,169.963 C161.281,169.062 158.731,169.512 156.781,169.512 L160.381,153.913 L184.381,153.913 L187.981,169.512 C186.031,169.512 183.481,169.062 181.681,169.963 C178.681,171.613 178.681,176.262 181.381,178.062 C183.181,179.113 185.731,178.663 187.681,178.663 L199.531,178.663 C201.331,178.663 203.581,178.963 205.231,178.213 C208.231,176.713 208.531,172.062 205.681,170.262 C203.731,168.913 200.881,169.512 198.631,169.512 C198.331,166.812 197.431,163.963 196.831,161.262 L183.781,104.863 C183.781,104.713 180.031,88.812 180.031,88.812 C178.231,84.312 173.881,85.213 172.381,85.213 C167.881,85.213 165.481,84.913 163.981,92.113 L151.231,146.863 C147.331,165.012 146.581,166.062 146.131,169.512 M162.481,144.762 L164.881,134.562 L171.031,105.312 L172.231,97.513 L172.531,97.513 L173.731,105.312 L175.981,116.412 C178.081,125.862 180.031,135.463 182.281,144.762 L162.481,144.762" fill="#FFFFFF" id="path4381"/>
      <path d="M228.24,141.913 C224.04,142.812 223.74,149.113 227.64,150.613 C228.84,151.062 230.34,150.913 231.54,150.913 L271.14,150.913 C272.49,150.913 274.14,151.062 275.34,150.312 C278.79,148.363 277.89,142.363 273.84,141.762 C272.79,141.613 271.59,141.762 270.54,141.762 L234.24,141.762 C232.29,141.762 230.19,141.462 228.24,141.913" fill="#FFFFFF" id="path4383"/>
      <path d="M362.848,171.312 L362.848,160.062 C362.848,158.413 363.148,156.163 362.248,154.663 C361.198,152.863 359.548,152.562 357.598,152.562 C355.348,152.562 353.248,153.163 352.498,155.562 C352.048,157.062 352.348,158.863 352.348,160.363 L352.348,169.513 L311.548,169.513 C312.898,167.263 314.398,165.163 315.898,163.062 L359.548,98.263 C360.748,96.313 363.298,94.063 361.798,89.713 C360.748,86.413 356.248,87.013 355.048,87.013 L305.398,87.013 C299.998,87.013 299.698,88.963 299.698,93.913 L299.698,103.963 C299.698,105.613 299.548,107.413 300.748,108.763 C301.798,110.113 303.148,110.263 304.798,110.263 C309.898,110.263 310.198,108.012 310.198,102.913 L310.198,96.163 L348.448,96.163 C347.098,98.413 345.598,100.513 344.098,102.613 L300.448,167.413 C299.248,169.363 296.698,171.613 298.198,175.963 C299.398,179.413 303.898,178.663 305.098,178.663 L356.998,178.663 C362.548,178.663 362.848,177.162 362.848,171.312" fill="#FFFFFF" id="path4385"/>
    </g>
  </g>
</svg>
