<?xml version="1.0" encoding="UTF-8"?>
<!DOCTYPE svg PUBLIC "-//W3C//DTD SVG 1.1//EN" "http://www.w3.org/Graphics/SVG/1.1/DTD/svg11.dtd">
<svg version="1.1" xmlns="http://www.w3.org/2000/svg" xmlns:xlink="http://www.w3.org/1999/xlink" x="0" y="0" width="141.84" height="141.84" viewBox="0, 0, 141.84, 141.84">
  <defs>
    <clipPath id="Clip_1">
      <path d="M-45.545,-134.773 L253.299,-134.773 L253.299,287.874 L-45.545,287.874 L-45.545,-134.773 z"/>
    </clipPath>
    <linearGradient id="Gradient_1" gradientUnits="userSpaceOnUse" x1="0.638" y1="-0.087" x2="0.823" y2="-0.087" gradientTransform="matrix(-257.049, -20.586, 20.586, -257.049, 262.858, 62.407)">
      <stop offset="0" stop-color="#F1923D"/>
      <stop offset="0.432" stop-color="#E9643B"/>
      <stop offset="0.432" stop-color="#E9643B"/>
      <stop offset="0.828" stop-color="#E33A37"/>
      <stop offset="1" stop-color="#E33A37"/>
    </linearGradient>
    <clipPath id="Clip_2">
      <path d="M96.737,66.555 C95.272,67.34 93.723,68.036 91.999,68.682 L91.999,68.682 C90.171,69.377 88.103,70.025 85.851,70.609 L85.851,70.609 C83.395,71.244 80.826,71.757 78.217,72.135 L78.217,72.135 C75.4,72.544 72.394,72.798 69.523,72.868 L69.523,72.868 C68.798,72.886 68.063,72.895 67.338,72.892 L67.338,72.892 L66.821,72.888 L66.198,72.879 C65.92,72.873 65.529,72.865 65.209,72.853 L65.209,72.853 C64.42,72.826 63.633,72.781 62.871,72.72 L62.871,72.72 C62.366,72.679 61.862,72.631 61.373,72.576 L61.373,72.576 C59.11,72.314 57.076,71.891 55.489,71.353 L55.489,71.353 C53.907,70.81 52.776,70.212 52.217,69.623 L52.217,69.623 C51.785,69.166 51.848,68.964 51.873,68.883 L51.873,68.883 C51.885,68.836 51.921,68.695 52.218,68.522 L52.218,68.522 C52.427,68.392 52.856,68.212 53.71,68.093 L53.71,68.093 L53.694,67.569 C52.901,67.614 52.049,67.768 51.415,67.981 L51.415,67.981 C50.922,68.148 50.533,68.342 50.181,68.596 L50.181,68.596 C49.639,69.022 49.385,69.504 49.426,70.041 L49.426,70.041 C49.526,70.922 50.349,71.711 51.873,72.386 L51.873,72.386 C53.494,73.105 55.729,73.648 58.515,74.002 L58.515,74.002 C59.226,74.094 59.993,74.172 60.795,74.236 L60.795,74.236 C61.662,74.306 62.577,74.359 63.515,74.394 L63.515,74.394 C63.982,74.412 64.393,74.422 64.927,74.433 L64.927,74.433 L65.543,74.441 L66.263,74.445 C67.226,74.447 68.156,74.435 69.106,74.408 L69.106,74.408 C72.799,74.309 76.725,73.95 80.159,73.397 L80.159,73.397 C83.22,72.908 86.031,72.272 88.514,71.507 L88.514,71.507 C92.978,70.11 95.901,68.539 96.968,66.964 L96.968,66.964 L97.534,66.128 L96.737,66.555 z"/>
    </clipPath>
    <clipPath id="Clip_3">
      <path d="M18.066,-50.934 L155.152,-39.956 L135.472,205.782 L-1.614,194.803 L18.066,-50.934 z"/>
    </clipPath>
  </defs>
  <g id="Calque_1">
    <g>
      <path d="M13.21,70.78 C13.21,67.31 13.21,63.84 13.21,60.37 C13.21,58.37 13.86,57.74 15.88,57.74 C18.99,57.74 22.11,57.74 25.22,57.74 C26.04,57.74 26.42,57.52 26.62,56.74 C27.328,54.206 28.335,51.766 29.62,49.47 C29.808,49.221 29.887,48.906 29.84,48.597 C29.793,48.289 29.624,48.012 29.37,47.83 C27.11,45.62 24.9,43.38 22.67,41.15 C21.36,39.83 21.35,38.93 22.67,37.58 C26.93,33.27 31.21,28.99 35.48,24.68 C36.211,23.891 36.985,23.143 37.8,22.44 C38.97,21.5 39.8,21.44 40.8,22.56 C43.07,24.81 45.34,27.05 47.56,29.34 C47.776,29.64 48.104,29.84 48.47,29.893 C48.836,29.946 49.208,29.847 49.5,29.62 C51.767,28.355 54.168,27.348 56.66,26.62 C56.973,26.589 57.258,26.428 57.448,26.178 C57.638,25.928 57.714,25.609 57.66,25.3 C57.66,22.14 57.66,18.99 57.66,15.84 C57.66,13.94 58.33,13.24 60.26,13.24 L77.97,13.33 C79.13,13.33 80.28,13.25 81.44,13.26 C83.07,13.26 83.76,14 83.77,15.63 C83.77,18.86 83.77,22.1 83.77,25.33 C83.77,26 83.87,26.45 84.64,26.64 C87.255,27.364 89.771,28.409 92.13,29.75 C92.367,29.926 92.664,30 92.955,29.955 C93.247,29.91 93.508,29.749 93.68,29.51 C95.89,27.26 98.13,25.04 100.36,22.82 C101.73,21.45 102.62,21.43 104.01,22.82 C107.23,26.02 110.43,29.25 113.65,32.47 C115.45,34.27 117.41,35.92 119.06,37.87 C120.06,39.08 120.06,39.87 118.95,40.99 C116.67,43.29 114.4,45.59 112.09,47.85 C111.836,48.032 111.666,48.31 111.621,48.619 C111.576,48.928 111.658,49.243 111.85,49.49 C113.155,51.827 114.195,54.302 114.95,56.87 C114.987,57.161 115.141,57.425 115.377,57.598 C115.614,57.772 115.911,57.842 116.2,57.79 C119.36,57.79 122.51,57.79 125.66,57.79 C127.66,57.79 128.33,58.45 128.32,60.45 C128.32,66.31 128.25,72.18 128.23,78.04 C128.23,79.24 128.32,80.43 128.29,81.63 C128.385,82.262 128.172,82.901 127.717,83.35 C127.262,83.798 126.621,84.003 125.99,83.9 C122.75,83.9 119.52,83.9 116.29,83.9 C115.97,83.836 115.639,83.908 115.374,84.097 C115.108,84.286 114.933,84.577 114.89,84.9 C114.166,87.436 113.142,89.877 111.84,92.17 C111.652,92.419 111.573,92.734 111.62,93.043 C111.667,93.351 111.836,93.628 112.09,93.81 C114.32,95.99 116.5,98.2 118.7,100.41 C120.11,101.81 120.14,102.69 118.78,104.06 Q112.39,110.53 105.97,116.97 C105.236,117.754 104.462,118.498 103.65,119.2 C102.48,120.14 101.65,120.15 100.65,119.08 C98.38,116.84 96.11,114.59 93.89,112.3 C93.449,111.699 92.606,111.565 92,112 C89.733,113.265 87.332,114.272 84.84,115 C84.526,115.028 84.239,115.188 84.048,115.439 C83.858,115.69 83.782,116.01 83.84,116.32 C83.84,119.48 83.84,122.63 83.84,125.78 C83.84,127.68 83.17,128.38 81.24,128.38 L63.53,128.29 C62.37,128.29 61.22,128.38 60.06,128.36 C58.43,128.36 57.74,127.62 57.73,125.99 C57.73,122.76 57.73,119.52 57.73,116.29 C57.73,115.62 57.63,115.17 56.86,114.99 C54.244,114.262 51.729,113.214 49.37,111.87 C49.133,111.694 48.836,111.62 48.545,111.665 C48.253,111.71 47.992,111.871 47.82,112.11 C45.62,114.36 43.37,116.58 41.14,118.81 C39.77,120.17 38.88,120.19 37.49,118.81 C34.27,115.61 31.07,112.38 27.85,109.16 C26.05,107.36 24.09,105.71 22.44,103.76 C21.44,102.55 21.44,101.76 22.55,100.64 C24.83,98.34 27.1,96.05 29.41,93.79 C29.665,93.606 29.835,93.327 29.88,93.016 C29.925,92.705 29.842,92.389 29.65,92.14 C28.345,89.803 27.305,87.328 26.55,84.76 C26.513,84.469 26.359,84.205 26.123,84.032 C25.886,83.858 25.589,83.788 25.3,83.84 C22.14,83.84 18.99,83.84 15.84,83.84 C13.84,83.84 13.19,83.19 13.18,81.18 L13.18,70.78 z" fill="#4D4D4D"/>
      <path d="M13.21,70.78 C13.21,67.31 13.21,63.84 13.21,60.37 C13.21,58.37 13.86,57.74 15.88,57.74 C18.99,57.74 22.11,57.74 25.22,57.74 C26.04,57.74 26.42,57.52 26.62,56.74 C27.328,54.206 28.335,51.766 29.62,49.47 C29.808,49.221 29.887,48.906 29.84,48.597 C29.793,48.289 29.624,48.012 29.37,47.83 C27.11,45.62 24.9,43.38 22.67,41.15 C21.36,39.83 21.35,38.93 22.67,37.58 C26.93,33.27 31.21,28.99 35.48,24.68 C36.211,23.891 36.985,23.143 37.8,22.44 C38.97,21.5 39.8,21.44 40.8,22.56 C43.07,24.81 45.34,27.05 47.56,29.34 C47.776,29.64 48.104,29.84 48.47,29.893 C48.836,29.946 49.208,29.847 49.5,29.62 C51.767,28.355 54.168,27.348 56.66,26.62 C56.973,26.589 57.258,26.428 57.448,26.178 C57.638,25.928 57.714,25.609 57.66,25.3 C57.66,22.14 57.66,18.99 57.66,15.84 C57.66,13.94 58.33,13.24 60.26,13.24 L77.97,13.33 C79.13,13.33 80.28,13.25 81.44,13.26 C83.07,13.26 83.76,14 83.77,15.63 C83.77,18.86 83.77,22.1 83.77,25.33 C83.77,26 83.87,26.45 84.64,26.64 C87.255,27.364 89.771,28.409 92.13,29.75 C92.367,29.926 92.664,30 92.955,29.955 C93.247,29.91 93.508,29.749 93.68,29.51 C95.89,27.26 98.13,25.04 100.36,22.82 C101.73,21.45 102.62,21.43 104.01,22.82 C107.23,26.02 110.43,29.25 113.65,32.47 C115.45,34.27 117.41,35.92 119.06,37.87 C120.06,39.08 120.06,39.87 118.95,40.99 C116.67,43.29 114.4,45.59 112.09,47.85 C111.836,48.032 111.666,48.31 111.621,48.619 C111.576,48.928 111.658,49.243 111.85,49.49 C113.155,51.827 114.195,54.302 114.95,56.87 C114.987,57.161 115.141,57.425 115.377,57.598 C115.614,57.772 115.911,57.842 116.2,57.79 C119.36,57.79 122.51,57.79 125.66,57.79 C127.66,57.79 128.33,58.45 128.32,60.45 C128.32,66.31 128.25,72.18 128.23,78.04 C128.23,79.24 128.32,80.43 128.29,81.63 C128.385,82.262 128.172,82.901 127.717,83.35 C127.262,83.798 126.621,84.003 125.99,83.9 C122.75,83.9 119.52,83.9 116.29,83.9 C115.97,83.836 115.639,83.908 115.374,84.097 C115.108,84.286 114.933,84.577 114.89,84.9 C114.166,87.436 113.142,89.877 111.84,92.17 C111.652,92.419 111.573,92.734 111.62,93.043 C111.667,93.351 111.836,93.628 112.09,93.81 C114.32,95.99 116.5,98.2 118.7,100.41 C120.11,101.81 120.14,102.69 118.78,104.06 Q112.39,110.53 105.97,116.97 C105.236,117.754 104.462,118.498 103.65,119.2 C102.48,120.14 101.65,120.15 100.65,119.08 C98.38,116.84 96.11,114.59 93.89,112.3 C93.449,111.699 92.606,111.565 92,112 C89.733,113.265 87.332,114.272 84.84,115 C84.526,115.028 84.239,115.188 84.048,115.439 C83.858,115.69 83.782,116.01 83.84,116.32 C83.84,119.48 83.84,122.63 83.84,125.78 C83.84,127.68 83.17,128.38 81.24,128.38 L63.53,128.29 C62.37,128.29 61.22,128.38 60.06,128.36 C58.43,128.36 57.74,127.62 57.73,125.99 C57.73,122.76 57.73,119.52 57.73,116.29 C57.73,115.62 57.63,115.17 56.86,114.99 C54.244,114.262 51.729,113.214 49.37,111.87 C49.133,111.694 48.836,111.62 48.545,111.665 C48.253,111.71 47.992,111.871 47.82,112.11 C45.62,114.36 43.37,116.58 41.14,118.81 C39.77,120.17 38.88,120.19 37.49,118.81 C34.27,115.61 31.07,112.38 27.85,109.16 C26.05,107.36 24.09,105.71 22.44,103.76 C21.44,102.55 21.44,101.76 22.55,100.64 C24.83,98.34 27.1,96.05 29.41,93.79 C29.665,93.606 29.835,93.327 29.88,93.016 C29.925,92.705 29.842,92.389 29.65,92.14 C28.345,89.803 27.305,87.328 26.55,84.76 C26.513,84.469 26.359,84.205 26.123,84.032 C25.886,83.858 25.589,83.788 25.3,83.84 C22.14,83.84 18.99,83.84 15.84,83.84 C13.84,83.84 13.19,83.19 13.18,81.18 L13.18,70.78 z" fill-opacity="0" stroke="#FFFFFF" stroke-width="2"/>
    </g>
    <path d="M70.93,100.32 C54.627,100.392 41.352,87.233 41.281,70.93 C41.209,54.627 54.367,41.352 70.67,41.281 C86.973,41.209 100.248,54.367 100.32,70.67 C100.299,86.935 87.194,100.156 70.93,100.32 z" fill="#FEFEFE"/>
    <g clip-path="url(#Clip_1)" id="g40">
      <path d="M77.933,72.594 C77.363,71.415 76.832,70.167 76.341,68.849 C75.849,67.532 75.402,66.171 74.999,64.766 C74.596,63.361 74.262,61.926 73.997,60.461 C73.732,58.997 73.549,57.537 73.452,56.082 C73.235,56.397 72.812,57.085 72.183,58.147 C71.555,59.208 70.778,60.51 69.854,62.054 C68.93,63.597 67.898,65.326 66.759,67.243 C65.619,69.159 64.448,71.129 63.25,73.154 M63.874,73.248 C62.733,75.195 61.623,77.066 60.542,78.865 C59.461,80.663 58.474,82.285 57.579,83.73 C56.685,85.175 55.928,86.374 55.309,87.327 C54.689,88.28 54.262,88.884 54.026,89.14 C53.692,89.494 53.387,89.72 53.112,89.818 C52.837,89.917 52.621,89.917 52.463,89.818 C52.307,89.72 52.233,89.528 52.242,89.244 C52.252,88.958 52.395,88.599 52.67,88.168 C52.768,87.99 53.088,87.464 53.628,86.59 C54.169,85.715 54.862,84.595 55.707,83.229 C56.552,81.862 57.51,80.31 58.581,78.57 C59.653,76.83 60.778,75.008 61.957,73.101 M61.333,73.183 C62.06,72.004 62.788,70.825 63.515,69.645 C64.243,68.466 64.95,67.316 65.638,66.195 C66.326,65.075 66.99,63.999 67.628,62.967 C68.267,61.936 68.862,60.977 69.412,60.093 C70.71,58.009 71.938,56.034 73.098,54.166 C72.999,53.793 72.93,53.429 72.892,53.075 C72.852,52.781 72.852,52.476 72.892,52.161 C72.93,51.847 73.039,51.582 73.216,51.365 C73.392,51.169 73.702,50.992 74.145,50.834 C74.587,50.678 75.059,50.574 75.559,50.525 C76.061,50.476 76.547,50.491 77.019,50.569 C77.491,50.648 77.845,50.815 78.081,51.07 C78.199,51.208 78.302,51.616 78.39,52.294 C78.478,52.972 78.582,53.847 78.7,54.918 C78.818,55.99 78.975,57.213 79.172,58.589 C79.368,59.965 79.623,61.419 79.938,62.952 C80.252,64.486 80.655,66.054 81.147,67.655 C81.638,69.257 82.238,70.815 82.945,72.328 M83.183,72.705 C83.851,73.609 84.628,74.444 85.512,75.211 C85.925,75.565 86.18,75.909 86.279,76.243 C86.377,76.577 86.308,76.862 86.073,77.098 C85.836,77.334 85.428,77.486 84.848,77.555 C84.269,77.624 83.527,77.569 82.623,77.393 C81.993,77.275 81.281,76.828 80.485,76.051 C79.689,75.275 78.858,74.248 77.994,72.97" fill="#5C5C5B" id="path48"/>
    </g>
    <g clip-path="url(#Clip_3)" id="g78">
      <path d="M98.257,65.46 L96.662,66.314 C95.205,67.094 93.663,67.786 91.947,68.43 C90.124,69.123 88.062,69.77 85.817,70.351 C83.367,70.984 80.804,71.497 78.201,71.873 C75.392,72.282 72.393,72.535 69.527,72.605 C68.806,72.624 68.073,72.631 67.347,72.628 L66.829,72.625 L66.219,72.616 L66.195,72.615 C65.92,72.61 65.537,72.602 65.224,72.59 C64.436,72.563 63.652,72.518 62.893,72.457 C62.389,72.417 61.887,72.369 61.398,72.314 C59.149,72.053 57.126,71.633 55.549,71.099 C53.587,70.425 52.728,69.813 52.354,69.418 C52.069,69.116 52.062,68.984 52.062,68.983 L52.067,68.968 L52.071,68.955 C52.076,68.936 52.127,68.86 52.294,68.763 C52.498,68.637 52.902,68.469 53.725,68.355 L53.693,67.306 C52.873,67.353 52.027,67.506 51.37,67.727 C50.858,67.901 50.451,68.103 50.09,68.363 L50.082,68.368 L50.075,68.374 C49.458,68.86 49.169,69.428 49.218,70.064 L49.219,70.076 L49.22,70.088 C49.333,71.084 50.176,71.917 51.798,72.635 C53.434,73.36 55.684,73.909 58.487,74.264 C59.2,74.356 59.97,74.435 60.773,74.499 C61.644,74.569 62.561,74.622 63.501,74.657 C63.991,74.676 64.42,74.686 64.915,74.696 L65.532,74.705 L66.254,74.709 C67.215,74.71 68.146,74.698 69.103,74.671 C72.803,74.572 76.737,74.213 80.178,73.659 C83.245,73.168 86.065,72.531 88.556,71.763 C91.7,70.779 95.738,69.176 97.124,67.131 L98.257,65.46 z M96.812,66.797 C95.792,68.302 92.943,69.852 88.472,71.252 C86.21,71.949 83.452,72.607 80.14,73.136 C76.853,73.666 72.942,74.043 69.109,74.145 C68.151,74.172 67.217,74.184 66.271,74.182 L65.552,74.178 L64.937,74.17 C64.405,74.159 63.995,74.149 63.529,74.131 C62.589,74.096 61.68,74.043 60.815,73.974 C60.017,73.91 59.256,73.832 58.544,73.74 C55.559,73.362 53.406,72.783 51.949,72.137 C50.484,71.489 49.719,70.758 49.633,69.994 C49.603,69.611 49.781,69.215 50.286,68.818 C50.56,68.62 50.916,68.42 51.462,68.235 C52.003,68.053 52.815,67.882 53.695,67.832 C52.891,67.944 52.408,68.115 52.132,68.286 C51.837,68.458 51.719,68.636 51.675,68.81 C51.566,69.161 51.772,69.501 52.08,69.828 C52.702,70.483 53.901,71.084 55.427,71.608 C56.97,72.13 58.968,72.562 61.346,72.838 C61.833,72.893 62.335,72.941 62.851,72.983 C63.603,73.043 64.385,73.088 65.196,73.116 C65.521,73.128 65.919,73.137 66.198,73.142 L66.811,73.151 L67.329,73.155 C68.04,73.158 68.786,73.15 69.519,73.131 C72.466,73.059 75.452,72.8 78.233,72.396 C81.017,71.993 83.59,71.46 85.886,70.866 C88.183,70.271 90.251,69.619 92.052,68.934 C93.876,68.25 95.435,67.535 96.812,66.797" fill="#FFFFFF" id="path86"/>
      <g clip-path="url(#Clip_2)" id="g52">
        <path d="M96.737,66.555 C95.272,67.34 93.723,68.036 91.999,68.682 L91.999,68.682 C90.171,69.377 88.103,70.025 85.851,70.609 L85.851,70.609 C83.395,71.244 80.826,71.757 78.217,72.135 L78.217,72.135 C75.4,72.544 72.394,72.798 69.523,72.868 L69.523,72.868 C68.798,72.886 68.063,72.895 67.338,72.892 L67.338,72.892 L66.821,72.888 L66.198,72.879 C65.92,72.873 65.529,72.865 65.209,72.853 L65.209,72.853 C64.42,72.826 63.633,72.781 62.871,72.72 L62.871,72.72 C62.366,72.679 61.862,72.631 61.373,72.576 L61.373,72.576 C59.11,72.314 57.076,71.891 55.489,71.353 L55.489,71.353 C53.907,70.81 52.776,70.212 52.217,69.623 L52.217,69.623 C51.785,69.166 51.848,68.964 51.873,68.883 L51.873,68.883 C51.885,68.836 51.921,68.695 52.218,68.522 L52.218,68.522 C52.427,68.392 52.856,68.212 53.71,68.093 L53.71,68.093 L53.694,67.569 C52.901,67.614 52.049,67.768 51.415,67.981 L51.415,67.981 C50.922,68.148 50.533,68.342 50.181,68.596 L50.181,68.596 C49.639,69.022 49.385,69.504 49.426,70.041 L49.426,70.041 C49.526,70.922 50.349,71.711 51.873,72.386 L51.873,72.386 C53.494,73.105 55.729,73.648 58.515,74.002 L58.515,74.002 C59.226,74.094 59.993,74.172 60.795,74.236 L60.795,74.236 C61.662,74.306 62.577,74.359 63.515,74.394 L63.515,74.394 C63.982,74.412 64.393,74.422 64.927,74.433 L64.927,74.433 L65.543,74.441 L66.263,74.445 C67.226,74.447 68.156,74.435 69.106,74.408 L69.106,74.408 C72.799,74.309 76.725,73.95 80.159,73.397 L80.159,73.397 C83.22,72.908 86.031,72.272 88.514,71.507 L88.514,71.507 C92.978,70.11 95.901,68.539 96.968,66.964 L96.968,66.964 L97.534,66.128 L96.737,66.555 z" fill="url(#Gradient_1)" id="path74"/>
      </g>
    </g>
  </g>
</svg>
