<?xml version="1.0" encoding="UTF-8"?>
<!DOCTYPE svg PUBLIC "-//W3C//DTD SVG 1.1//EN" "http://www.w3.org/Graphics/SVG/1.1/DTD/svg11.dtd">
<svg version="1.1" xmlns="http://www.w3.org/2000/svg" xmlns:xlink="http://www.w3.org/1999/xlink" x="0" y="0" width="260" height="251" viewBox="0, 0, 260, 251">
  <g id="Calque_1">
    <g>
      <path d="M129.69,245.53 C123.22,245.53 116.75,245.41 110.28,245.58 C107.12,245.67 105.86,244.73 105.91,241.36 C106.08,230.07 105.91,218.78 105.99,207.48 C105.99,201.06 110.1,197.05 116.5,197.02 C125.29,196.96 134.09,197.02 142.88,197.02 C149.99,197.02 153.88,200.9 153.88,208.02 C153.93,219.02 153.74,229.94 153.98,240.9 C154.06,244.75 152.7,245.76 149.08,245.63 C142.64,245.36 136.16,245.53 129.69,245.53 z" fill="#F08D37"/>
      <path d="M125.922,192.993 L129.697,192.997 C130.92,193 131.898,193.002 134.097,193.007 C138.491,193.017 140.443,193.02 142.88,193.02 C152.202,193.02 157.88,198.694 157.88,208.002 C157.895,211.299 157.892,213.932 157.872,219.829 C157.856,224.893 157.852,227.136 157.859,229.939 C157.869,233.951 157.906,237.46 157.979,240.817 C158.106,246.916 154.915,249.842 148.913,249.626 C145.129,249.468 142.066,249.453 135.13,249.503 C134.366,249.509 134.025,249.512 133.6,249.514 C132.046,249.525 130.853,249.53 129.69,249.53 C128.102,249.53 126.835,249.525 123.987,249.509 C117.165,249.472 114.143,249.48 110.394,249.578 C104.908,249.735 101.827,246.911 101.911,241.3 C101.992,235.909 102.001,231.587 101.978,221.849 C101.962,214.658 101.962,211.458 101.99,207.48 C101.99,198.874 107.864,193.06 116.473,193.02 C121.596,192.992 118.446,193.006 125.922,192.993 z M129.69,196.997 L116.5,197.02 C110.1,197.05 105.99,201.06 105.99,207.48 C105.91,218.78 106.08,230.07 105.91,241.36 C105.86,244.73 107.12,245.67 110.28,245.58 C116.75,245.41 123.22,245.53 129.69,245.53 C136.16,245.53 142.64,245.36 149.08,245.63 C152.7,245.76 154.06,244.75 153.98,240.9 C153.74,229.94 153.93,219.02 153.88,208.02 C153.88,200.9 149.99,197.02 142.88,197.02 L129.69,196.997 z" fill="#FFFFFF"/>
    </g>
    <g>
      <path d="M130.45,65.17 C143.25,65.17 156.06,65.26 168.86,65.11 C172.08,65.11 173.31,66.02 173.16,69.36 C172.92,74.68 173,80.01 173.16,85.36 C173.23,87.96 172.67,89.36 169.63,89.3 Q129.97,89.17 90.31,89.3 C87.31,89.3 86.72,87.94 86.78,85.35 C86.91,80.02 87,74.69 86.78,69.35 C86.62,66 87.88,65.08 91.08,65.11 C104.17,65.25 117.31,65.17 130.45,65.17 z" fill="#F08D37"/>
      <path d="M168.86,61.11 C174.39,61.11 177.408,63.926 177.156,69.54 C176.949,74.128 176.967,78.835 177.158,85.252 C177.293,90.259 174.884,93.404 169.617,93.3 C143.186,93.213 116.754,93.213 90.31,93.3 C85.068,93.3 82.666,90.205 82.781,85.252 C82.95,78.33 82.968,74.003 82.785,69.541 C82.515,63.905 85.583,61.058 91.123,61.11 C99.1,61.196 105.5,61.205 119.932,61.181 C125.188,61.173 127.527,61.17 130.45,61.17 L130.45,61.17 C133.362,61.17 135.691,61.173 140.932,61.183 C145.295,61.192 147.234,61.195 149.657,61.196 C157.181,61.201 163.096,61.177 168.86,61.11 z M168.86,65.11 C156.06,65.26 143.25,65.17 130.45,65.17 C117.31,65.17 104.17,65.25 91.08,65.11 C87.88,65.08 86.62,66 86.78,69.35 C87,74.69 86.91,80.02 86.78,85.35 C86.72,87.94 87.31,89.3 90.31,89.3 Q129.97,89.17 169.63,89.3 C172.67,89.36 173.23,87.96 173.16,85.36 C173,80.01 172.92,74.68 173.16,69.36 C173.31,66.02 172.08,65.11 168.86,65.11 z" fill="#FFFFFF"/>
    </g>
    <g>
      <path d="M129.74,123.07 C121.42,123.07 113.1,122.97 104.74,123.07 C101.95,123.07 100.93,122.27 100.99,119.4 C101.15,111.74 101.14,104.08 100.99,96.4 C100.99,93.65 101.75,92.58 104.64,92.59 Q129.84,92.75 155.04,92.59 C157.83,92.59 158.84,93.44 158.79,96.3 C158.63,103.96 158.59,111.62 158.79,119.3 C158.88,122.62 157.42,123.1 154.61,123.06 C146.37,123 138.05,123.07 129.74,123.07 z" fill="#F08D37"/>
      <path d="M155.04,88.59 C160.075,88.59 162.878,91.275 162.789,96.383 C162.614,104.751 162.605,112.133 162.788,119.192 C162.94,124.789 159.82,127.135 154.581,127.06 C150.136,127.028 146.562,127.029 138.477,127.053 C135.504,127.062 134.174,127.065 132.516,127.068 C131.543,127.069 130.626,127.07 129.74,127.07 L129.74,127.07 C127.422,127.07 125.572,127.064 121.402,127.048 C113.099,127.014 109.404,127.014 104.74,127.07 C99.699,127.07 96.884,124.432 96.991,119.316 C97.146,111.889 97.144,104.301 96.99,96.4 C96.99,91.409 99.553,88.572 104.665,88.59 C121.448,88.697 138.232,88.697 155.04,88.59 z M155.04,92.59 Q129.84,92.75 104.64,92.59 C101.75,92.58 100.99,93.65 100.99,96.4 C101.14,104.08 101.15,111.74 100.99,119.4 C100.93,122.27 101.95,123.07 104.74,123.07 C113.1,122.97 121.42,123.07 129.74,123.07 C138.05,123.07 146.37,123 154.61,123.06 C157.42,123.1 158.88,122.62 158.79,119.3 C158.59,111.62 158.63,103.96 158.79,96.3 C158.84,93.44 157.83,92.59 155.04,92.59 z" fill="#FFFFFF"/>
    </g>
    <g>
      <path d="M206.405,139.114 C214.715,139.654 223.725,145.884 222.345,155.354 C222.185,156.494 222.255,157.504 221.015,158.304 C216.665,161.114 213.115,164.524 211.695,169.864 C210.991,172.877 209.115,174.499 206.086,174.499 C203.23,174.499 200.875,171.554 199.605,168.774 C197.631,164.83 194.896,162.054 190.345,158.254 C188.292,156.164 188.245,153.684 188.955,151.814 C191.585,144.924 197.395,139.084 206.405,139.114 z" fill="#F08D37"/>
      <path d="M206.418,135.114 L206.542,135.114 L206.664,135.122 C218.196,135.872 227.947,144.653 226.306,155.91 C226.293,156.002 226.286,156.067 226.258,156.31 C226.139,157.349 226.032,157.914 225.694,158.722 C225.191,159.921 224.347,160.914 223.185,161.664 C218.904,164.43 216.551,167.166 215.561,170.892 L215.554,170.89 C214.246,175.86 211.07,178.12 206.086,178.499 C201.153,178.333 198.115,174.634 196.032,170.563 L196.028,170.564 C194.492,167.496 192.413,165.191 187.781,161.324 L187.63,161.198 L187.492,161.057 C184.5,158.012 183.851,153.987 185.218,150.387 C188.737,141.168 196.375,135.081 206.418,135.114 z M206.405,139.114 C197.395,139.084 191.585,144.924 188.955,151.814 C188.245,153.684 188.292,156.164 190.345,158.254 C194.896,162.054 197.631,164.83 199.605,168.774 C200.875,171.554 203.23,174.499 206.086,174.499 C209.115,174.499 210.991,172.877 211.695,169.864 C213.115,164.524 216.665,161.114 221.015,158.304 C222.255,157.504 222.185,156.494 222.345,155.354 C223.725,145.884 214.715,139.654 206.405,139.114 z" fill="#FFFFFF"/>
    </g>
    <g>
      <path d="M28.861,245.53 C22.391,245.53 15.921,245.41 9.451,245.58 C6.291,245.67 5.031,244.73 5.081,241.36 C5.251,230.07 5.081,218.78 5.161,207.48 C5.161,201.06 9.271,197.05 15.671,197.02 C24.461,196.96 33.261,197.02 42.051,197.02 C49.161,197.02 53.051,200.9 53.051,208.02 C53.101,219.02 52.911,229.94 53.151,240.9 C53.231,244.75 51.871,245.76 48.251,245.63 C41.811,245.36 35.331,245.53 28.861,245.53 z" fill="#F08D37"/>
      <path d="M25.093,192.993 L28.868,192.997 C30.09,193 31.069,193.002 33.268,193.007 C37.662,193.017 39.613,193.02 42.051,193.02 C51.373,193.02 57.051,198.694 57.051,208.002 C57.066,211.299 57.062,213.932 57.043,219.829 C57.026,224.893 57.022,227.136 57.029,229.939 C57.04,233.951 57.077,237.46 57.15,240.817 C57.277,246.916 54.086,249.842 48.083,249.626 C44.3,249.468 41.237,249.453 34.301,249.503 C33.537,249.509 33.196,249.512 32.771,249.514 C31.217,249.525 30.024,249.53 28.861,249.53 C27.273,249.53 26.006,249.525 23.158,249.509 C16.336,249.472 13.313,249.48 9.565,249.578 C4.079,249.735 0.998,246.911 1.081,241.3 C1.163,235.909 1.171,231.587 1.149,221.849 C1.133,214.658 1.133,211.458 1.161,207.48 C1.161,198.874 7.034,193.06 15.644,193.02 C20.767,192.992 17.617,193.006 25.093,192.993 z M28.861,196.997 L15.671,197.02 C9.271,197.05 5.161,201.06 5.161,207.48 C5.081,218.78 5.251,230.07 5.081,241.36 C5.031,244.73 6.291,245.67 9.451,245.58 C15.921,245.41 22.391,245.53 28.861,245.53 C35.331,245.53 41.811,245.36 48.251,245.63 C51.871,245.76 53.231,244.75 53.151,240.9 C52.911,229.94 53.101,219.02 53.051,208.02 C53.051,200.9 49.161,197.02 42.051,197.02 L28.861,196.997 z" fill="#FFFFFF"/>
    </g>
    <g>
      <path d="M230.487,245.456 C224.017,245.456 217.547,245.336 211.077,245.506 C207.917,245.596 206.657,244.656 206.707,241.286 C206.877,229.996 206.707,218.706 206.787,207.406 C206.787,200.986 210.897,196.976 217.297,196.946 C226.087,196.886 234.887,196.946 243.677,196.946 C250.787,196.946 254.677,200.826 254.677,207.946 C254.727,218.946 254.537,229.866 254.777,240.826 C254.857,244.676 253.497,245.686 249.877,245.556 C243.437,245.286 236.957,245.456 230.487,245.456 z" fill="#F08D37"/>
      <path d="M226.719,192.919 L230.494,192.923 C231.716,192.926 232.695,192.928 234.893,192.933 C239.288,192.943 241.239,192.946 243.677,192.946 C252.999,192.946 258.677,198.62 258.677,207.928 C258.692,211.225 258.688,213.858 258.669,219.755 C258.652,224.819 258.648,227.062 258.655,229.865 C258.666,233.877 258.703,237.386 258.776,240.743 C258.903,246.842 255.712,249.768 249.709,249.552 C245.926,249.394 242.863,249.379 235.927,249.429 C235.163,249.435 234.822,249.438 234.397,249.44 C232.843,249.451 231.65,249.456 230.487,249.456 C228.899,249.456 227.632,249.451 224.784,249.435 C217.962,249.398 214.939,249.406 211.191,249.504 C205.705,249.661 202.624,246.837 202.707,241.226 C202.789,235.835 202.797,231.513 202.775,221.775 C202.759,214.585 202.759,211.384 202.787,207.406 C202.787,198.8 208.66,192.986 217.27,192.946 C222.393,192.918 219.243,192.932 226.719,192.919 z M230.487,196.923 L217.297,196.946 C210.897,196.976 206.787,200.986 206.787,207.406 C206.707,218.706 206.877,229.996 206.707,241.286 C206.657,244.656 207.917,245.596 211.077,245.506 C217.547,245.336 224.017,245.456 230.487,245.456 C236.957,245.456 243.437,245.286 249.877,245.556 C253.497,245.686 254.857,244.676 254.777,240.826 C254.537,229.866 254.727,218.946 254.677,207.946 C254.677,200.826 250.787,196.946 243.677,196.946 L230.487,196.923 z" fill="#FFFFFF"/>
    </g>
    <g>
      <path d="M155.773,139.114 C164.083,139.654 173.093,145.884 171.713,155.354 C171.553,156.494 171.623,157.504 170.383,158.304 C166.033,161.114 162.483,164.524 161.063,169.864 C160.359,172.877 158.482,174.499 155.454,174.499 C152.598,174.499 150.243,171.554 148.973,168.774 C146.998,164.83 144.264,162.054 139.713,158.254 C137.66,156.164 137.613,153.684 138.323,151.814 C140.953,144.924 146.763,139.084 155.773,139.114 z" fill="#F08D37"/>
      <path d="M155.786,135.114 L155.909,135.114 L156.032,135.122 C167.564,135.872 177.315,144.653 175.674,155.91 C175.661,156.002 175.653,156.067 175.626,156.31 C175.507,157.349 175.4,157.914 175.061,158.722 C174.559,159.921 173.715,160.914 172.553,161.664 C168.272,164.43 165.919,167.166 164.928,170.892 L164.922,170.89 C163.614,175.86 160.438,178.12 155.454,178.499 C150.521,178.333 147.483,174.634 145.399,170.563 L145.396,170.564 C143.86,167.496 141.781,165.191 137.149,161.324 L136.998,161.198 L136.86,161.057 C133.868,158.012 133.219,153.987 134.586,150.387 C138.105,141.168 145.743,135.081 155.786,135.114 z M155.773,139.114 C146.763,139.084 140.953,144.924 138.323,151.814 C137.613,153.684 137.66,156.164 139.713,158.254 C144.264,162.054 146.998,164.83 148.973,168.774 C150.243,171.554 152.598,174.499 155.454,174.499 C158.482,174.499 160.359,172.877 161.063,169.864 C162.483,164.524 166.033,161.114 170.383,158.304 C171.623,157.504 171.553,156.494 171.713,155.354 C173.093,145.884 164.083,139.654 155.773,139.114 z" fill="#FFFFFF"/>
    </g>
    <g>
      <path d="M105.478,139.114 C113.788,139.654 123.961,145.996 122.581,155.466 C122.421,156.606 122.006,157.57 120.766,158.37 C116.416,161.18 112.188,164.524 110.768,169.864 C110.064,172.877 108.187,174.499 105.159,174.499 C102.303,174.499 99.948,171.554 98.678,168.774 C96.703,164.83 93.254,162.17 88.703,158.37 C86.65,156.281 87.63,153.949 88.34,152.079 C90.97,145.189 96.468,139.084 105.478,139.114 z" fill="#F08D37"/>
      <path d="M105.491,135.114 L105.614,135.114 L105.737,135.122 C117.486,135.886 128.18,144.784 126.542,156.022 C126.206,158.416 125.1,160.334 122.936,161.73 C118.004,164.916 115.539,167.488 114.633,170.892 L114.627,170.89 C113.319,175.86 110.143,178.12 105.159,178.499 C100.226,178.333 97.188,174.634 95.104,170.563 L95.101,170.565 C94.359,169.083 93.28,167.726 91.597,166.125 C90.922,165.483 90.149,164.799 89.141,163.945 C88.735,163.602 88.309,163.246 87.704,162.742 C87.541,162.607 87.326,162.428 86.937,162.105 C86.624,161.845 86.38,161.642 86.14,161.441 L85.988,161.314 L85.85,161.174 C84.609,159.911 83.845,158.425 83.579,156.801 C83.26,154.853 83.59,153.335 84.42,151.134 C84.462,151.022 84.515,150.882 84.603,150.652 C88.194,141.244 95.51,135.081 105.491,135.114 z M105.478,139.114 C96.468,139.084 90.97,145.189 88.34,152.079 C87.63,153.949 86.65,156.281 88.703,158.37 C93.254,162.17 96.703,164.83 98.678,168.774 C99.948,171.554 102.303,174.499 105.159,174.499 C108.187,174.499 110.064,172.877 110.768,169.864 C112.188,164.524 116.416,161.18 120.766,158.37 C122.006,157.57 122.421,156.606 122.581,155.466 C123.961,145.996 113.788,139.654 105.478,139.114 z" fill="#FFFFFF"/>
    </g>
    <g>
      <path d="M54.769,139.114 C63.079,139.654 73.386,145.996 72.006,155.466 C71.846,156.606 71.431,157.691 70.191,158.491 C65.841,161.301 61.479,164.524 60.059,169.864 C59.355,172.877 57.478,174.499 54.449,174.499 C51.594,174.499 49.239,171.554 47.969,168.774 C45.994,164.83 43.26,162.054 38.709,158.254 C36.656,156.165 36.609,153.684 37.319,151.814 C39.949,144.924 45.759,139.084 54.769,139.114 z" fill="#F08D37"/>
      <path d="M54.782,135.114 L54.905,135.114 L55.028,135.122 C66.806,135.888 77.605,144.785 75.967,156.022 C75.627,158.445 74.543,160.444 72.362,161.851 C67.164,165.209 64.804,167.585 63.924,170.892 L63.918,170.89 C62.61,175.86 59.434,178.12 54.449,178.499 C49.517,178.333 46.478,174.634 44.395,170.563 L44.392,170.565 C42.855,167.496 40.777,165.191 36.145,161.324 L35.994,161.198 L35.855,161.057 C32.864,158.012 32.215,153.987 33.582,150.387 C37.101,141.168 44.738,135.081 54.782,135.114 z M54.769,139.114 C45.759,139.084 39.949,144.924 37.319,151.814 C36.609,153.684 36.656,156.165 38.709,158.254 C43.26,162.054 45.994,164.83 47.969,168.774 C49.239,171.554 51.594,174.499 54.449,174.499 C57.478,174.499 59.355,172.877 60.059,169.864 C61.479,164.524 65.841,161.301 70.191,158.491 C71.431,157.691 71.846,156.606 72.006,155.466 C73.386,145.996 63.079,139.654 54.769,139.114 z" fill="#FFFFFF"/>
    </g>
    <g>
      <path d="M129.891,31.038 C122.563,31.038 116.622,25.097 116.622,17.769 C116.622,10.441 122.563,4.5 129.891,4.5 C137.219,4.5 143.16,10.441 143.16,17.769 C143.16,25.097 137.219,31.038 129.891,31.038 z" fill="#5B5B5B"/>
      <path d="M129.891,0.5 C139.428,0.5 147.16,8.232 147.16,17.769 C147.16,27.306 139.428,35.038 129.891,35.038 C120.354,35.038 112.622,27.306 112.622,17.769 C112.622,8.232 120.354,0.5 129.891,0.5 z M129.891,4.5 C122.563,4.5 116.622,10.441 116.622,17.769 C116.622,25.097 122.563,31.038 129.891,31.038 C137.219,31.038 143.16,25.097 143.16,17.769 C143.16,10.441 137.219,4.5 129.891,4.5 z" fill="#FFFFFF"/>
    </g>
    <g>
      <path d="M129.608,58.89 C123.478,58.89 117.338,58.78 111.208,58.94 C108.458,59.02 107.308,58.21 107.428,55.31 C107.608,50.67 107.428,46.02 107.488,41.37 C107.558,37.31 111.958,33.08 116.118,33.06 Q129.798,32.99 143.468,33.06 C148.4,33.151 152.377,37.127 152.468,42.06 C152.468,46.54 152.368,51.06 152.468,55.5 C152.548,58.08 151.608,59 149.008,58.95 C142.548,58.8 136.078,58.89 129.608,58.89 z" fill="#5B5B5B"/>
      <path d="M129.802,29.025 L143.542,29.061 C150.625,29.191 156.337,34.902 156.468,42.06 C156.468,43.318 156.462,44.322 156.446,46.578 C156.413,51.032 156.413,52.997 156.466,55.376 C156.617,60.253 153.809,63.043 148.915,62.949 C145.048,62.859 141.938,62.85 134.917,62.876 C132.265,62.887 131.085,62.89 129.608,62.89 C128.12,62.89 126.933,62.885 124.262,62.871 C122.329,62.861 121.47,62.858 120.398,62.855 C116.794,62.846 114.006,62.868 111.324,62.938 C106.234,63.086 103.215,60.367 103.431,55.155 C103.518,52.918 103.525,51.102 103.493,46.98 C103.471,44.164 103.468,42.905 103.489,41.301 C103.596,35.046 109.784,29.09 116.098,29.06 L129.802,29.025 z M129.796,33.025 L116.118,33.06 C111.958,33.08 107.558,37.31 107.488,41.37 C107.428,46.02 107.608,50.67 107.428,55.31 C107.308,58.21 108.458,59.02 111.208,58.94 C117.338,58.78 123.478,58.89 129.608,58.89 C136.078,58.89 142.548,58.8 149.008,58.95 C151.608,59 152.548,58.08 152.468,55.5 C152.368,51.06 152.468,46.54 152.468,42.06 C152.377,37.127 148.4,33.151 143.468,33.06 L129.796,33.025 z" fill="#FFFFFF"/>
    </g>
    <g>
      <path d="M79.204,245.53 C72.734,245.53 66.264,245.41 59.794,245.58 C56.634,245.67 55.374,244.73 55.424,241.36 C55.594,230.07 55.424,218.78 55.504,207.48 C55.504,201.06 59.614,197.05 66.014,197.02 C74.804,196.96 83.604,197.02 92.394,197.02 C99.504,197.02 103.394,200.9 103.394,208.02 C103.444,219.02 103.254,229.94 103.494,240.9 C103.574,244.75 102.214,245.76 98.594,245.63 C92.154,245.36 85.674,245.53 79.204,245.53 z" fill="#5B5B5B"/>
      <path d="M75.436,192.993 L79.211,192.997 C80.433,193 81.412,193.002 83.61,193.007 C88.005,193.017 89.956,193.02 92.394,193.02 C101.716,193.02 107.394,198.694 107.394,208.002 C107.409,211.299 107.405,213.932 107.386,219.829 C107.369,224.893 107.365,227.136 107.372,229.939 C107.383,233.951 107.42,237.46 107.493,240.817 C107.62,246.916 104.429,249.842 98.426,249.626 C94.643,249.468 91.58,249.453 84.644,249.503 C83.88,249.509 83.539,249.512 83.114,249.514 C81.56,249.525 80.367,249.53 79.204,249.53 C77.616,249.53 76.349,249.525 73.501,249.509 C66.679,249.472 63.656,249.48 59.908,249.578 C54.422,249.735 51.341,246.911 51.424,241.3 C51.506,235.909 51.514,231.587 51.492,221.849 C51.476,214.658 51.476,211.458 51.504,207.48 C51.504,198.874 57.377,193.06 65.987,193.02 C71.11,192.992 67.96,193.006 75.436,192.993 z M79.204,196.997 L66.014,197.02 C59.614,197.05 55.504,201.06 55.504,207.48 C55.424,218.78 55.594,230.07 55.424,241.36 C55.374,244.73 56.634,245.67 59.794,245.58 C66.264,245.41 72.734,245.53 79.204,245.53 C85.674,245.53 92.154,245.36 98.594,245.63 C102.214,245.76 103.574,244.75 103.494,240.9 C103.254,229.94 103.444,219.02 103.394,208.02 C103.394,200.9 99.504,197.02 92.394,197.02 L79.204,196.997 z" fill="#FFFFFF"/>
    </g>
    <g>
      <path d="M180.174,245.53 C173.704,245.53 167.234,245.41 160.764,245.58 C157.604,245.67 156.344,244.73 156.394,241.36 C156.564,230.07 156.394,218.78 156.474,207.48 C156.474,201.06 160.584,197.05 166.984,197.02 C175.774,196.96 184.574,197.02 193.364,197.02 C200.474,197.02 204.364,200.9 204.364,208.02 C204.414,219.02 204.224,229.94 204.464,240.9 C204.544,244.75 203.184,245.76 199.564,245.63 C193.124,245.36 186.644,245.53 180.174,245.53 z" fill="#5B5B5B"/>
      <path d="M176.406,192.993 L180.181,192.997 C181.403,193 182.382,193.002 184.581,193.007 C188.975,193.017 190.926,193.02 193.364,193.02 C202.686,193.02 208.364,198.694 208.364,208.002 C208.379,211.299 208.375,213.932 208.356,219.829 C208.339,224.893 208.335,227.136 208.342,229.939 C208.353,233.951 208.39,237.46 208.463,240.817 C208.59,246.916 205.399,249.842 199.396,249.626 C195.613,249.468 192.55,249.453 185.614,249.503 C184.85,249.509 184.509,249.512 184.084,249.514 C182.53,249.525 181.337,249.53 180.174,249.53 C178.586,249.53 177.319,249.525 174.471,249.509 C167.649,249.472 164.626,249.48 160.878,249.578 C155.392,249.735 152.311,246.911 152.394,241.3 C152.476,235.909 152.484,231.587 152.462,221.849 C152.446,214.658 152.446,211.458 152.474,207.48 C152.474,198.874 158.347,193.06 166.957,193.02 C172.08,192.992 168.93,193.006 176.406,192.993 z M180.174,196.997 L166.984,197.02 C160.584,197.05 156.474,201.06 156.474,207.48 C156.394,218.78 156.564,230.07 156.394,241.36 C156.344,244.73 157.604,245.67 160.764,245.58 C167.234,245.41 173.704,245.53 180.174,245.53 C186.644,245.53 193.124,245.36 199.564,245.63 C203.184,245.76 204.544,244.75 204.464,240.9 C204.224,229.94 204.414,219.02 204.364,208.02 C204.364,200.9 200.474,197.02 193.364,197.02 L180.174,196.997 z" fill="#FFFFFF"/>
    </g>
    <g>
      <path d="M29.117,195.161 C19.453,195.161 11.619,187.326 11.619,177.663 C11.619,167.999 19.453,160.164 29.117,160.164 C38.781,160.164 46.615,167.999 46.615,177.663 C46.615,187.326 38.781,195.161 29.117,195.161 z" fill="#5B5B5B"/>
      <path d="M29.117,156.164 C40.99,156.164 50.615,165.79 50.615,177.663 C50.615,189.535 40.99,199.161 29.117,199.161 C17.244,199.161 7.619,189.535 7.619,177.663 C7.619,165.79 17.244,156.164 29.117,156.164 z M29.117,160.164 C19.453,160.164 11.619,167.999 11.619,177.663 C11.619,187.326 19.453,195.161 29.117,195.161 C38.781,195.161 46.615,187.326 46.615,177.663 C46.615,167.999 38.781,160.164 29.117,160.164 z" fill="#FFFFFF"/>
    </g>
    <g>
      <path d="M79.46,195.161 C69.796,195.161 61.962,187.326 61.962,177.663 C61.962,167.999 69.796,160.164 79.46,160.164 C89.124,160.164 96.958,167.999 96.958,177.663 C96.958,187.326 89.124,195.161 79.46,195.161 z" fill="#5B5B5B"/>
      <path d="M79.46,156.164 C91.333,156.164 100.958,165.79 100.958,177.663 C100.958,189.535 91.333,199.161 79.46,199.161 C67.587,199.161 57.962,189.535 57.962,177.663 C57.962,165.79 67.587,156.164 79.46,156.164 z M79.46,160.164 C69.796,160.164 61.962,167.999 61.962,177.663 C61.962,187.326 69.796,195.161 79.46,195.161 C89.124,195.161 96.958,187.326 96.958,177.663 C96.958,167.999 89.124,160.164 79.46,160.164 z" fill="#FFFFFF"/>
    </g>
    <g>
      <path d="M130,195.161 C120.336,195.161 112.502,187.326 112.502,177.663 C112.502,167.999 120.336,160.164 130,160.164 C139.664,160.164 147.498,167.999 147.498,177.663 C147.498,187.326 139.664,195.161 130,195.161 z" fill="#5B5B5B"/>
      <path d="M130,156.164 C141.873,156.164 151.498,165.79 151.498,177.663 C151.498,189.535 141.873,199.161 130,199.161 C118.127,199.161 108.502,189.535 108.502,177.663 C108.502,165.79 118.127,156.164 130,156.164 z M130,160.164 C120.336,160.164 112.502,167.999 112.502,177.663 C112.502,187.326 120.336,195.161 130,195.161 C139.664,195.161 147.498,187.326 147.498,177.663 C147.498,167.999 139.664,160.164 130,160.164 z" fill="#FFFFFF"/>
    </g>
    <g>
      <path d="M180.43,194.254 C170.766,194.254 162.932,186.42 162.932,176.756 C162.932,167.092 170.766,159.258 180.43,159.258 C190.094,159.258 197.928,167.092 197.928,176.756 C197.928,186.42 190.094,194.254 180.43,194.254 z" fill="#5B5B5B"/>
      <path d="M180.43,155.258 C192.303,155.258 201.928,164.883 201.928,176.756 C201.928,188.629 192.303,198.254 180.43,198.254 C168.557,198.254 158.932,188.629 158.932,176.756 C158.932,164.883 168.557,155.258 180.43,155.258 z M180.43,159.258 C170.766,159.258 162.932,167.092 162.932,176.756 C162.932,186.42 170.766,194.254 180.43,194.254 C190.094,194.254 197.928,186.42 197.928,176.756 C197.928,167.092 190.094,159.258 180.43,159.258 z" fill="#FFFFFF"/>
    </g>
    <g>
      <path d="M230.743,194.254 C221.079,194.254 213.245,186.42 213.245,176.756 C213.245,167.092 221.079,159.258 230.743,159.258 C240.407,159.258 248.241,167.092 248.241,176.756 C248.241,186.42 240.407,194.254 230.743,194.254 z" fill="#5B5B5B"/>
      <path d="M230.743,155.258 C242.616,155.258 252.241,164.883 252.241,176.756 C252.241,188.629 242.616,198.254 230.743,198.254 C218.87,198.254 209.245,188.629 209.245,176.756 C209.245,164.883 218.87,155.258 230.743,155.258 z M230.743,159.258 C221.079,159.258 213.245,167.092 213.245,176.756 C213.245,186.42 221.079,194.254 230.743,194.254 C240.407,194.254 248.241,186.42 248.241,176.756 C248.241,167.092 240.407,159.258 230.743,159.258 z" fill="#FFFFFF"/>
    </g>
  </g>
</svg>
