<?xml version="1.0" encoding="utf-8"?>
<!-- Generator: Adobe Illustrator 16.0.0, SVG Export Plug-In . SVG Version: 6.00 Build 0)  -->
<!DOCTYPE svg PUBLIC "-//W3C//DTD SVG 1.0//EN" "http://www.w3.org/TR/2001/REC-SVG-20010904/DTD/svg10.dtd">
<svg version="1.0" id="Layer_1" xmlns="http://www.w3.org/2000/svg" xmlns:xlink="http://www.w3.org/1999/xlink" x="0px" y="0px"
	 width="800px" height="800px" viewBox="0 0 800 800" enable-background="new 0 0 800 800" xml:space="preserve">
<g>
	<g>
		<path fill="#008529" d="M399.998,773.568c207.376,0,373.57-167.666,373.57-373.569c0-207.373-167.662-373.567-373.57-373.567
			c-207.371,0-373.565,167.665-373.565,373.567C26.433,607.374,194.095,773.568,399.998,773.568"/>
	</g>
	<g>
		<path fill="#FFFFFF" d="M254.397,316.168c0,16.178-8.826,23.531-25.002,23.531c-16.18,0-25.006-7.354-25.006-23.531v-35.299
			h13.239v35.299c0,5.881,1.468,13.235,11.767,13.235c8.822,0,11.767-4.411,11.767-13.235v-35.299h13.235V316.168z"/>
		<path fill="#FFFFFF" d="M266.164,280.869h30.883c10.298,0,17.651,7.354,17.651,16.179c0,7.354-2.944,11.767-8.826,14.707l0,0
			c5.882,1.471,7.354,7.354,8.826,13.237c0,2.94,0,10.294,2.941,13.237H304.4c-1.468-2.943-1.468-8.826-1.468-13.237
			c-1.473-5.883-2.941-8.824-10.295-8.824h-13.239v22.062h-13.235V280.869L266.164,280.869z M277.93,307.342h13.235
			c5.882,0,8.826-2.94,8.826-8.824c0-5.883-2.944-7.354-8.826-7.354H277.93V307.342z"/>
		<path fill="#FFFFFF" d="M349.994,279.399c17.648,0,27.943,13.235,27.943,30.885c0,16.179-10.295,29.415-27.943,29.415
			c-17.647,0-27.942-13.236-27.942-29.415C322.052,292.635,332.347,279.399,349.994,279.399z M349.994,329.403
			c11.768,0,16.18-10.294,16.18-19.119c0-10.296-4.413-20.59-16.18-20.59c-11.766,0-16.179,10.294-16.179,20.59
			C333.815,319.109,338.228,329.403,349.994,329.403z"/>
		<path fill="#FFFFFF" d="M386.763,280.869h26.475c14.707,0,20.589,8.825,20.589,19.119c0,8.826-5.882,19.121-20.589,19.121h-13.24
			v20.59h-13.235V280.869L386.763,280.869z M399.998,307.342h10.298c5.882,0,11.763-1.47,11.763-8.824
			c0-7.354-5.881-8.823-11.763-8.823h-10.298V307.342z"/>
		<path fill="#FFFFFF" d="M441.18,280.869h42.653v10.295h-30.887v11.767h27.942v10.295h-27.942v14.707h30.887v10.297h-44.122v-57.36
			H441.18z"/>
		<path fill="#FFFFFF" d="M510.307,280.869h13.235l22.061,57.36h-13.234l-4.413-13.237h-22.061l-4.414,13.237h-13.238
			L510.307,280.869z M510.307,316.168h14.708l-7.357-20.591l0,0L510.307,316.168z"/>
		<path fill="#FFFFFF" d="M551.485,280.869h13.238l23.53,38.24l0,0v-38.24h11.766v57.36h-13.234l-23.534-38.241l0,0v38.241h-11.766
			V280.869z"/>
	</g>
	<g>
		<path fill="#FFFFFF" d="M245.571,407.353c-1.468-5.882-5.881-10.294-13.235-10.294c-11.767,0-16.18,10.294-16.18,20.589
			c0,10.294,4.413,19.119,16.18,19.119c7.354,0,11.767-5.881,13.235-13.238h11.767c-1.469,14.707-11.767,23.533-25.001,23.533
			c-17.648,0-27.943-13.234-27.943-29.414c0-17.648,10.294-30.885,27.943-30.885c13.235,0,23.533,7.354,25.001,20.59H245.571
			L245.571,407.353z"/>
		<path fill="#FFFFFF" d="M267.632,388.234h13.239v57.358h-13.239V388.234z"/>
		<path fill="#FFFFFF" d="M292.637,388.234h42.65v10.294H304.4v11.769h27.946v10.295H304.4v14.707h30.887v10.294h-44.122v-57.358
			H292.637z"/>
		<path fill="#FFFFFF" d="M345.582,388.234h13.239l23.53,38.238l0,0v-38.238h11.767v57.358h-13.235l-23.533-38.24l0,0v38.24h-11.767
			V388.234z"/>
		<path fill="#FFFFFF" d="M444.12,407.353c-1.468-5.882-5.882-10.294-13.235-10.294c-11.767,0-16.18,10.294-16.18,20.589
			c0,10.294,4.413,19.119,16.18,19.119c7.354,0,11.768-5.881,13.235-13.238h11.767c-1.468,14.707-11.767,23.533-25.002,23.533
			c-17.647,0-27.942-13.234-27.942-29.414c0-17.648,10.295-30.885,27.942-30.885c13.235,0,23.534,7.354,25.002,20.59H444.12
			L444.12,407.353z"/>
		<path fill="#FFFFFF" d="M466.185,388.234h42.65v10.294h-30.887v11.769h27.946v10.295h-27.946v14.707h30.887v10.294h-44.123
			v-57.358H466.185z"/>
	</g>
	<g>
		<path fill="#FFFFFF" d="M233.808,492.656c17.648,0,27.943,13.235,27.943,30.887c0,16.176-10.295,29.415-27.943,29.415
			c-17.651,0-27.946-13.239-27.946-29.415C204.389,505.892,216.156,492.656,233.808,492.656z M233.808,542.664
			c11.763,0,16.176-10.299,16.176-19.121c0-10.294-4.413-20.593-16.176-20.593c-11.766,0-16.179,10.299-16.179,20.593
			C217.628,533.838,222.042,542.664,233.808,542.664z"/>
		<path fill="#FFFFFF" d="M320.58,530.893c0,16.18-8.825,23.533-25.001,23.533c-16.18,0-25.002-7.354-25.002-23.533v-35.296h13.235
			v35.296c0,5.886,1.473,13.239,11.767,13.239c8.822,0,11.767-4.413,11.767-13.239v-35.296h13.235V530.893z"/>
		<path fill="#FFFFFF" d="M330.874,494.128h13.239l23.529,38.237l0,0v-38.237h11.767v57.358h-13.235l-23.534-38.237l0,0v38.237
			h-11.767V494.128z"/>
		<path fill="#FFFFFF" d="M392.645,494.128h25.005c14.707,0,26.47,8.822,26.47,27.943c0,16.179-8.821,29.415-26.47,29.415h-25.005
			V494.128z M404.411,541.191h11.767c7.354,0,14.707-4.413,14.707-17.648c0-11.767-4.412-19.12-16.18-19.12h-8.821v36.769H404.411z"
			/>
		<path fill="#FFFFFF" d="M466.185,494.128h13.235l22.061,57.358h-13.238l-4.409-13.236h-22.061l-4.413,13.236H444.12
			L466.185,494.128z M464.712,529.425h14.708l-7.353-20.589l0,0L464.712,529.425z"/>
		<path fill="#FFFFFF" d="M513.248,505.892H495.6v-10.295h47.063v10.295h-17.648v47.066h-13.239v-47.066H513.248z"/>
		<path fill="#FFFFFF" d="M550.017,494.128h13.234v57.358h-13.234V494.128z"/>
		<path fill="#FFFFFF" d="M600.02,492.656c17.648,0,27.946,13.235,27.946,30.887c0,16.176-10.298,29.415-27.946,29.415
			s-27.942-13.239-27.942-29.415C572.077,505.892,582.371,492.656,600.02,492.656z M600.02,542.664
			c11.767,0,16.181-10.299,16.181-19.121c0-10.294-4.414-20.593-16.181-20.593c-11.766,0-16.176,10.299-16.176,20.593
			C583.844,533.838,588.254,542.664,600.02,542.664z"/>
		<path fill="#FFFFFF" d="M636.788,494.128h13.238l23.529,38.237l0,0v-38.237h11.768v57.358h-13.235l-23.532-38.237l0,0v38.237
			h-11.768V494.128z"/>
	</g>
	<path fill="#FFFFFF" d="M147.032,274.987h47.063V263.22h-47.063c-10.294,0-17.647,7.354-17.647,17.649v39.71
		c0,10.296,7.354,17.65,17.647,17.65h47.063v-11.767h-47.063c-2.94,0-5.881-2.941-5.881-5.884v-13.237h52.944v-11.765h-52.944
		v-13.236C142.619,276.457,144.092,274.987,147.032,274.987z"/>
	<path fill="#FFFFFF" d="M176.447,447.062h-45.594v-11.763h45.594c2.941,0,5.885-2.944,5.885-5.886v-10.294
		c0-2.94-2.944-5.885-5.885-5.885h-27.942c-10.294,0-17.651-7.35-17.651-17.646v-5.884c0-10.297,7.357-17.65,17.651-17.65h45.591
		v11.767h-45.591c-2.94,0-5.885,2.941-5.885,5.884v7.354c0,2.94,2.945,5.881,5.885,5.881h27.942
		c10.294,0,17.648,7.357,17.648,17.652v10.294C194.095,439.712,186.741,447.062,176.447,447.062z"/>
	<path fill="#FFFFFF" d="M148.504,486.771h50.003v-13.236h-50.003c-10.294,0-17.651,8.822-17.651,19.121v58.83h11.766v-33.828
		h55.889v-13.235h-55.889v-11.767C142.619,489.716,145.56,486.771,148.504,486.771z"/>
</g>
</svg>
