<?xml version="1.0" encoding="UTF-8"?>
<!DOCTYPE svg PUBLIC "-//W3C//DTD SVG 1.1//EN" "http://www.w3.org/Graphics/SVG/1.1/DTD/svg11.dtd">
<svg version="1.1" xmlns="http://www.w3.org/2000/svg" xmlns:xlink="http://www.w3.org/1999/xlink" x="0" y="0" width="500" height="500" viewBox="0, 0, 500, 500">
  <g id="Layer_1">
    <g id="g6094">
      <g>
        <path d="M94.811,46.686 L305.838,46.686 C329.768,46.686 349.167,66.085 349.167,90.015 L349.167,232.702 C349.167,256.632 329.768,276.031 305.838,276.031 L94.811,276.031 C70.881,276.031 51.482,256.632 51.482,232.702 L51.482,90.015 C51.482,66.085 70.881,46.686 94.811,46.686 z" fill="#FFFFFF"/>
        <path d="M94.811,46.686 L305.838,46.686 C329.768,46.686 349.167,66.085 349.167,90.015 L349.167,232.702 C349.167,256.632 329.768,276.031 305.838,276.031 L94.811,276.031 C70.881,276.031 51.482,256.632 51.482,232.702 L51.482,90.015 C51.482,66.085 70.881,46.686 94.811,46.686 z" fill-opacity="0" stroke="#FFFFFF" stroke-width="24" stroke-linecap="round" stroke-linejoin="round"/>
      </g>
      <g>
        <path d="M46.098,344.012 L181.479,279.019 L96.866,276.031 z" fill="#FFFFFF"/>
        <path d="M46.098,344.012 L181.479,279.019 L96.866,276.031 z" fill-opacity="0" stroke="#FFFFFF" stroke-width="24" stroke-linecap="round" stroke-linejoin="round"/>
      </g>
    </g>
    <g id="g5285">
      <g>
        <path d="M463.438,465.73 L328.057,400.737 L412.67,397.749 z" fill="#FFFFFF"/>
        <path d="M463.438,465.73 L328.057,400.737 L412.67,397.749 z" fill-opacity="0" stroke="#FFFFFF" stroke-width="24" stroke-linecap="round" stroke-linejoin="round"/>
      </g>
      <g>
        <path d="M413.439,168.404 L204.983,168.404 C180.343,168.404 160.369,187.803 160.369,211.733 L160.369,354.42 C160.369,378.35 180.343,397.749 204.983,397.749 L413.439,397.749 C438.079,397.749 458.054,378.35 458.054,354.42 L458.054,211.733 C458.054,187.803 438.079,168.404 413.439,168.404 z" fill="#FFFFFF"/>
        <path d="M413.439,168.404 L204.983,168.404 C180.343,168.404 160.369,187.803 160.369,211.733 L160.369,354.42 C160.369,378.35 180.343,397.749 204.983,397.749 L413.439,397.749 C438.079,397.749 458.054,378.35 458.054,354.42 L458.054,211.733 C458.054,187.803 438.079,168.404 413.439,168.404 z" fill-opacity="0" stroke="#FFFFFF" stroke-width="24" stroke-linecap="round" stroke-linejoin="round"/>
      </g>
    </g>
  </g>
  <g id="Calque_3">
    <g id="g6094">
      <g id="rect2985">
        <path d="M94.811,46.686 L305.838,46.686 C329.768,46.686 349.167,66.085 349.167,90.015 L349.167,232.702 C349.167,256.632 329.768,276.031 305.838,276.031 L94.811,276.031 C70.881,276.031 51.482,256.632 51.482,232.702 L51.482,90.015 C51.482,66.085 70.881,46.686 94.811,46.686 z" fill="#FFFFFF"/>
        <path d="M94.811,46.686 L305.838,46.686 C329.768,46.686 349.167,66.085 349.167,90.015 L349.167,232.702 C349.167,256.632 329.768,276.031 305.838,276.031 L94.811,276.031 C70.881,276.031 51.482,256.632 51.482,232.702 L51.482,90.015 C51.482,66.085 70.881,46.686 94.811,46.686 z" fill-opacity="0" stroke="#565656" stroke-width="11.674" stroke-linecap="round" stroke-linejoin="round" stroke-miterlimit="20"/>
      </g>
      <g id="path3776">
        <path d="M46.098,344.012 L181.479,279.019 L96.866,276.031 z" fill="#565656"/>
        <path d="M46.098,344.012 L181.479,279.019 L96.866,276.031 z" fill-opacity="0" stroke="#565656" stroke-width="10.613" stroke-linejoin="round"/>
      </g>
    </g>
    <g id="g5285">
      <g id="rect2985-5">
        <path d="M413.439,168.404 L204.983,168.404 C180.343,168.404 160.369,187.803 160.369,211.733 L160.369,354.42 C160.369,378.35 180.343,397.749 204.983,397.749 L413.439,397.749 C438.079,397.749 458.054,378.35 458.054,354.42 L458.054,211.733 C458.054,187.803 438.079,168.404 413.439,168.404 z" fill="#FFFFFF"/>
        <path d="M413.439,168.404 L204.983,168.404 C180.343,168.404 160.369,187.803 160.369,211.733 L160.369,354.42 C160.369,378.35 180.343,397.749 204.983,397.749 L413.439,397.749 C438.079,397.749 458.054,378.35 458.054,354.42 L458.054,211.733 C458.054,187.803 438.079,168.404 413.439,168.404 z" fill-opacity="0" stroke="#F18F34" stroke-width="11.846" stroke-linecap="round" stroke-linejoin="round" stroke-miterlimit="20"/>
      </g>
      <g id="path3776-1">
        <path d="M463.438,465.73 L328.057,400.737 L412.67,397.749 z" fill="#F18F34"/>
        <path d="M463.438,465.73 L328.057,400.737 L412.67,397.749 z" fill-opacity="0" stroke="#F18F34" stroke-width="10.769" stroke-linejoin="round"/>
      </g>
    </g>
  </g>
</svg>
