<?xml version="1.0" encoding="UTF-8"?>
<!DOCTYPE svg PUBLIC "-//W3C//DTD SVG 1.1//EN" "http://www.w3.org/Graphics/SVG/1.1/DTD/svg11.dtd">
<svg version="1.1" xmlns="http://www.w3.org/2000/svg" xmlns:xlink="http://www.w3.org/1999/xlink" x="0" y="0" width="250" height="250" viewBox="0, 0, 250, 250">
  <g id="Calque_1">
    <g>
      <path d="M124.93,223 C119.76,214.49 114.34,206.46 109.93,197.93 C106.7,191.73 103.11,185.75 99.93,179.56 C95.88,171.81 90.93,164.56 86.42,157.14 Q74.62,137.94 62.54,118.9 C60.046,115.049 57.805,111.041 55.83,106.9 C53.343,101.309 51.602,95.415 50.65,89.37 C48.239,75.212 49.914,60.66 55.48,47.42 C59.238,38.371 64.75,30.157 71.7,23.25 C82.189,12.803 95.5,5.647 110,2.66 C114.737,1.629 119.572,1.122 124.42,1.15 C134.526,1.109 144.537,3.098 153.86,7 C160.08,9.722 165.938,13.206 171.3,17.37 C175.652,20.583 179.604,24.307 183.07,28.46 C195.386,43.217 201.593,62.125 200.42,81.31 C199.815,92.877 196.44,104.129 190.58,114.12 C184.92,123.77 179.08,133.32 173.3,142.9 Q161.84,161.9 150.36,180.9 Q140.57,197.16 130.78,213.45 C128.89,216.56 127,219.68 124.93,223 z M124.87,100.51 C143.11,100.94 157.09,85.85 157.44,69.27 C157.86,49.5 142.7,35.65 125.02,35.71 C107.12,35.76 93.07,49.13 92.55,67.76 C92.05,85.56 107.37,101 124.87,100.51 z" fill="#F08E34"/>
      <path d="M124.93,223 C119.76,214.49 114.34,206.46 109.93,197.93 C106.7,191.73 103.11,185.75 99.93,179.56 C95.88,171.81 90.93,164.56 86.42,157.14 Q74.62,137.94 62.54,118.9 C60.046,115.049 57.805,111.041 55.83,106.9 C53.343,101.309 51.602,95.415 50.65,89.37 C48.239,75.212 49.914,60.66 55.48,47.42 C59.238,38.371 64.75,30.157 71.7,23.25 C82.189,12.803 95.5,5.647 110,2.66 C114.737,1.629 119.572,1.122 124.42,1.15 C134.526,1.109 144.537,3.098 153.86,7 C160.08,9.722 165.938,13.206 171.3,17.37 C175.652,20.583 179.604,24.307 183.07,28.46 C195.386,43.217 201.593,62.125 200.42,81.31 C199.815,92.877 196.44,104.129 190.58,114.12 C184.92,123.77 179.08,133.32 173.3,142.9 Q161.84,161.9 150.36,180.9 Q140.57,197.16 130.78,213.45 C128.89,216.56 127,219.68 124.93,223 z M124.87,100.51 C143.11,100.94 157.09,85.85 157.44,69.27 C157.86,49.5 142.7,35.65 125.02,35.71 C107.12,35.76 93.07,49.13 92.55,67.76 C92.05,85.56 107.37,101 124.87,100.51 z" fill-opacity="0" stroke="#FFFFFF" stroke-width="4"/>
    </g>
    <g>
      <path d="M107.36,197.79 C96.81,198.567 86.397,200.649 76.36,203.99 C71.606,205.424 67.117,207.623 63.07,210.5 C61.52,211.67 62.19,212.11 63.07,212.77 C67.87,216.22 73.32,218.27 78.94,219.99 C85.517,221.837 92.195,223.306 98.94,224.39 C102.15,224.98 105.44,225.18 108.71,225.45 C117.064,226.17 125.457,226.31 133.83,225.87 C148.01,225.1 162.08,223.35 175.56,218.48 C179.106,217.282 182.489,215.646 185.63,213.61 C188.52,211.61 188.63,211.43 185.76,209.61 C181.36,206.8 176.48,205.06 171.54,203.41 C166.37,201.69 161.07,200.53 155.76,199.32 Q161.87,189.32 168,179.32 C168.438,178.568 169.361,178.249 170.17,178.57 C180.94,181.44 191.61,184.71 200.58,191.57 C208.16,197.38 212.88,204.94 211.39,214.97 C210.405,221.111 207.088,226.635 202.13,230.39 C191.37,239.01 178.57,242.77 165.35,245.47 C157.822,246.974 150.201,247.976 142.54,248.47 C135.72,248.96 128.88,249.61 122.1,249.3 C112.6,248.86 103.1,248.53 93.63,247.02 C84.31,245.683 75.138,243.459 66.24,240.38 C58.7,237.65 51.54,234.14 45.75,228.38 C36.92,219.6 35.75,206.61 44.04,197.06 C49.04,191.31 55.27,187.55 62.04,184.4 C69.206,181.158 76.722,178.756 84.44,177.24 C87.7,176.55 90.99,176.03 94.27,175.46 C94.835,175.316 95.418,175.623 95.62,176.17 C99.51,183.17 103.46,190.17 107.38,197.24 C107.46,197.39 107.38,197.59 107.36,197.79 z" fill="#565656"/>
      <path d="M107.36,197.79 C96.81,198.567 86.397,200.649 76.36,203.99 C71.606,205.424 67.117,207.623 63.07,210.5 C61.52,211.67 62.19,212.11 63.07,212.77 C67.87,216.22 73.32,218.27 78.94,219.99 C85.517,221.837 92.195,223.306 98.94,224.39 C102.15,224.98 105.44,225.18 108.71,225.45 C117.064,226.17 125.457,226.31 133.83,225.87 C148.01,225.1 162.08,223.35 175.56,218.48 C179.106,217.282 182.489,215.646 185.63,213.61 C188.52,211.61 188.63,211.43 185.76,209.61 C181.36,206.8 176.48,205.06 171.54,203.41 C166.37,201.69 161.07,200.53 155.76,199.32 Q161.87,189.32 168,179.32 C168.438,178.568 169.361,178.249 170.17,178.57 C180.94,181.44 191.61,184.71 200.58,191.57 C208.16,197.38 212.88,204.94 211.39,214.97 C210.405,221.111 207.088,226.635 202.13,230.39 C191.37,239.01 178.57,242.77 165.35,245.47 C157.822,246.974 150.201,247.976 142.54,248.47 C135.72,248.96 128.88,249.61 122.1,249.3 C112.6,248.86 103.1,248.53 93.63,247.02 C84.31,245.683 75.138,243.459 66.24,240.38 C58.7,237.65 51.54,234.14 45.75,228.38 C36.92,219.6 35.75,206.61 44.04,197.06 C49.04,191.31 55.27,187.55 62.04,184.4 C69.206,181.158 76.722,178.756 84.44,177.24 C87.7,176.55 90.99,176.03 94.27,175.46 C94.835,175.316 95.418,175.623 95.62,176.17 C99.51,183.17 103.46,190.17 107.38,197.24 C107.46,197.39 107.38,197.59 107.36,197.79 z" fill-opacity="0" stroke="#FFFFFF" stroke-width="4"/>
    </g>
    <path d="M124.87,100.51 C107.37,101 92.05,85.56 92.55,67.76 C93.07,49.13 107.12,35.76 125.02,35.71 C142.7,35.65 157.86,49.5 157.44,69.27 C157.09,85.85 143.11,100.94 124.87,100.51 z" fill="#FEFEFE"/>
  </g>
</svg>
