<?xml version="1.0" encoding="UTF-8"?>
<!DOCTYPE svg PUBLIC "-//W3C//DTD SVG 1.1//EN" "http://www.w3.org/Graphics/SVG/1.1/DTD/svg11.dtd">
<svg version="1.1" xmlns="http://www.w3.org/2000/svg" xmlns:xlink="http://www.w3.org/1999/xlink" x="0" y="0" width="64" height="64" viewBox="0, 0, 64, 64">
  <g id="Calque_1">
    <g>
      <path d="M22.53,1.375 L47.53,1.375 C47.53,1.375 62.53,16.375 62.53,16.375 L62.53,52.625 C62.53,58.148 58.053,62.625 52.53,62.625 L22.53,62.625 C17.007,62.625 12.53,58.148 12.53,52.625 L12.53,11.375 C12.53,5.852 17.007,1.375 22.53,1.375 z" fill="#B54242"/>
      <path d="M22.53,1.375 L47.53,1.375 C47.53,1.375 62.53,16.375 62.53,16.375 L62.53,52.625 C62.53,58.148 58.053,62.625 52.53,62.625 L22.53,62.625 C17.007,62.625 12.53,58.148 12.53,52.625 L12.53,11.375 C12.53,5.852 17.007,1.375 22.53,1.375 z" fill-opacity="0" stroke="#F7F6E7" stroke-width="2.5"/>
    </g>
    <g>
      <g>
        <path d="M11.47,25.989 L52.53,25.989 C58.053,25.989 62.53,30.466 62.53,35.989 L62.53,52.625 C62.53,58.148 58.053,62.625 52.53,62.625 L11.47,62.625 C5.947,62.625 1.47,58.148 1.47,52.625 L1.47,35.989 C1.47,30.466 5.947,25.989 11.47,25.989 z" fill="#B54242"/>
        <path d="M11.47,25.989 L52.53,25.989 C58.053,25.989 62.53,30.466 62.53,35.989 L62.53,52.625 C62.53,58.148 58.053,62.625 52.53,62.625 L11.47,62.625 C5.947,62.625 1.47,58.148 1.47,52.625 L1.47,35.989 C1.47,30.466 5.947,25.989 11.47,25.989 z" fill-opacity="0" stroke="#F7F6E7" stroke-width="2.5"/>
      </g>
      <path d="M14.16,33.212 Q18.29,33.212 20.565,34.909 Q22.84,36.607 22.84,40.457 Q22.84,44.342 20.548,46.074 Q18.255,47.807 14.055,47.807 L12.515,47.807 L12.515,55.122 L8.21,55.122 L8.21,33.737 Q8.84,33.597 9.628,33.492 Q10.415,33.387 11.22,33.334 Q12.025,33.282 12.795,33.247 Q13.565,33.212 14.16,33.212 z M14.65,36.957 Q14.265,36.957 13.583,36.974 Q12.9,36.992 12.515,37.062 L12.515,44.062 L14.265,44.062 Q16.33,44.062 17.38,43.239 Q18.43,42.417 18.43,40.422 Q18.43,38.532 17.398,37.744 Q16.365,36.957 14.65,36.957 z" fill="#F7F6E7"/>
      <path d="M29.515,51.622 Q29.69,51.657 29.9,51.657 Q30.11,51.657 30.285,51.657 Q31.755,51.657 32.753,51.097 Q33.75,50.537 34.362,49.557 Q34.975,48.577 35.237,47.229 Q35.5,45.882 35.5,44.272 Q35.5,42.872 35.29,41.542 Q35.08,40.212 34.555,39.197 Q34.03,38.182 33.12,37.569 Q32.21,36.957 30.775,36.957 Q30.495,36.957 30.145,36.974 Q29.795,36.992 29.515,37.062 z M39.875,44.272 Q39.875,47.282 39.123,49.399 Q38.37,51.517 37.04,52.847 Q35.71,54.177 33.873,54.789 Q32.035,55.402 29.83,55.402 Q28.675,55.402 27.573,55.279 Q26.47,55.157 25.21,54.877 L25.21,33.737 Q26.68,33.422 27.975,33.317 Q29.27,33.212 30.39,33.212 Q32.525,33.212 34.292,33.842 Q36.06,34.472 37.285,35.819 Q38.51,37.167 39.193,39.25 Q39.875,41.332 39.875,44.272 z" fill="#F7F6E7"/>
      <path d="M42.525,55.122 L42.525,33.457 L55.79,33.457 L55.79,37.027 L46.83,37.027 L46.83,42.277 L54.67,42.277 L54.67,45.847 L46.83,45.847 L46.83,55.122 z" fill="#F7F6E7"/>
    </g>
    <g>
      <path d="M62.53,16.81 C47.057,16.81 47.057,16.81 47.057,1.375 L62.53,16.81 z" fill="#B54242"/>
      <path d="M62.53,16.81 C47.057,16.81 47.057,16.81 47.057,1.375 L62.53,16.81 z" fill-opacity="0" stroke="#F7F6E7" stroke-width="2.5" stroke-linecap="round" stroke-linejoin="bevel"/>
    </g>
  </g>
</svg>
