<?xml version="1.0" encoding="UTF-8"?>
<!DOCTYPE svg PUBLIC "-//W3C//DTD SVG 1.1//EN" "http://www.w3.org/Graphics/SVG/1.1/DTD/svg11.dtd">
<svg version="1.1" xmlns="http://www.w3.org/2000/svg" xmlns:xlink="http://www.w3.org/1999/xlink" x="0" y="0" width="275" height="275" viewBox="0, 0, 275, 275">
  <g id="Image">
    <g>
      <path d="M137.5,255.498 C72.331,255.498 19.502,202.669 19.502,137.5 C19.502,72.331 72.331,19.502 137.5,19.502 C202.669,19.502 255.498,72.331 255.498,137.5 C255.498,202.669 202.669,255.498 137.5,255.498 z" fill="#5B5B5B"/>
      <path d="M137.5,255.498 C72.331,255.498 19.502,202.669 19.502,137.5 C19.502,72.331 72.331,19.502 137.5,19.502 C202.669,19.502 255.498,72.331 255.498,137.5 C255.498,202.669 202.669,255.498 137.5,255.498 z" fill-opacity="0" stroke="#FFFFFF" stroke-width="4"/>
    </g>
    <g id="notepad">
      <path d="M176.444,144.923 Q176.444,164.033 176.444,183.133 C176.444,185.253 175.154,186.453 173.314,187.133 C171.135,187.937 168.826,188.33 166.504,188.293 C141.204,188.243 115.894,188.293 90.584,188.293 C83.004,188.293 80.584,185.833 80.584,178.293 L80.584,71.813 C80.584,64.653 81.884,63.323 88.944,63.343 C92.774,63.343 97.374,62.213 100.214,63.923 C103.554,65.923 101.054,70.923 101.594,74.623 C102.864,83.233 106.344,86.303 115.144,86.313 C124.804,86.313 134.454,86.313 144.144,86.313 C150.664,86.313 155.144,81.783 155.574,75.193 C155.794,71.423 153.854,66.543 156.504,64.193 C159.154,61.843 164.154,63.453 168.104,63.393 C176.014,63.283 176.524,63.893 176.534,71.883 C176.534,93.193 176.534,93.223 164.034,110.183 C161.894,113.073 159.164,115.513 157.374,118.683 C156.114,120.923 153.914,120.283 152.004,120.283 C136.354,120.283 120.704,120.283 105.004,120.283 C103.841,120.193 102.673,120.213 101.514,120.343 C98.644,120.903 96.514,122.573 96.694,125.653 C96.894,128.523 98.384,130.363 101.874,130.323 C116.024,130.183 130.174,130.243 144.324,130.323 C145.904,130.323 148.044,129.513 148.924,131.093 C149.804,132.673 147.324,133.323 146.844,134.653 C144.324,141.583 139.174,142.903 132.384,142.403 C124.764,141.843 117.074,142.283 109.384,142.283 L106.894,142.283 C99.454,142.283 96.454,143.913 96.544,147.903 C96.634,151.683 99.604,153.263 106.644,153.273 C113.684,153.283 120.964,153.273 128.124,153.273 C129.764,153.273 131.464,152.973 133.224,153.893 C131.104,159.273 133.764,164.563 133.764,169.993 C133.764,173.663 140.254,176.563 144.374,175.833 C152.494,174.393 158.374,170.173 162.634,163.063 C166.494,156.653 171.104,150.703 175.384,144.543 z M128.104,109.293 L154.504,109.293 C157.465,109.543 160.078,107.37 160.374,104.413 C161.014,100.803 158.294,99.483 155.564,98.523 C154.43,98.261 153.261,98.19 152.104,98.313 Q128.914,98.313 105.734,98.313 C104.41,98.246 103.083,98.367 101.794,98.673 C98.884,99.533 95.794,100.613 96.614,104.583 C97.324,107.893 99.664,109.363 103.154,109.313 C111.504,109.223 119.794,109.293 128.104,109.293 z" fill="#F08B34"/>
      <path d="M217.504,72.123 C215.334,75.473 213.294,78.853 211.044,82.073 C204.434,91.493 198.044,101.073 191.044,110.193 C180.864,123.343 171.844,137.293 162.274,150.843 C161.044,152.593 159.984,153.153 157.994,151.523 C148.834,144.043 146.304,147.083 154.284,135.853 Q173.824,108.343 193.424,80.853 C196.754,76.163 200.334,71.613 203.234,66.673 C205.454,62.893 207.674,62.743 210.784,65.133 C213.294,67.113 216.444,68.533 217.504,72.123 z" fill="#F08B34"/>
      <path d="M128.984,79.293 C124.494,79.293 119.984,79.173 115.514,79.293 C111.334,79.443 109.354,77.793 109.514,73.463 C109.674,68.313 109.734,63.143 109.514,58.003 C109.334,54.053 111.414,52.423 114.794,52.393 C117.494,52.393 118.154,51.293 118.964,48.853 C120.514,44.133 124.184,42.123 129.354,42.193 C134.524,42.263 137.804,44.483 139.164,48.963 C139.954,51.563 140.874,52.193 143.414,52.413 C147.224,52.733 149.804,54.643 149.584,59.163 C149.364,63.683 149.514,68.473 149.584,73.163 C149.584,77.233 147.644,79.293 143.584,79.283 z M128.834,52.483 C130.394,51.483 133.544,54.053 133.934,50.803 C134.184,48.633 132.234,47.233 129.534,47.273 C126.584,47.273 124.124,48.853 124.094,51.193 C124.064,53.383 127.124,51.763 128.834,52.503 z" fill="#F08B34"/>
      <path d="M142.934,168.503 C139.794,168.693 140.504,166.203 140.554,164.503 C140.684,160.503 138.174,155.413 144.194,153.413 C145.474,152.993 154.304,160.543 154.194,161.623 C154.074,164.643 148.134,168.293 142.934,168.503 z" fill="#F08B34"/>
      <path d="M128.104,109.293 C119.794,109.293 111.484,109.223 103.184,109.293 C99.694,109.343 97.354,107.873 96.644,104.563 C95.794,100.563 98.914,99.563 101.824,98.653 C103.113,98.347 104.44,98.226 105.764,98.293 Q128.954,98.293 152.134,98.293 C153.291,98.17 154.46,98.241 155.594,98.503 C158.324,99.503 161.044,100.783 160.404,104.393 C160.119,107.371 157.483,109.56 154.504,109.293 z" fill="#565656"/>
      <path d="M128.834,52.503 C127.124,51.763 124.064,53.383 124.094,51.213 C124.094,48.873 126.584,47.323 129.534,47.293 C132.234,47.293 134.184,48.653 133.934,50.823 C133.504,54.073 130.394,51.453 128.834,52.503 z" fill="#565656"/>
    </g>
    <g id="register_copie">
      <path d="M81.5,209.627 C81.5,206.627 81.67,203.627 81.44,200.687 C81.28,198.687 82.14,198.487 83.73,198.617 C86.73,198.857 89.79,198.267 92.8,199.617 C95.81,200.967 97.23,203.557 96.04,206.677 C95.397,208.141 94.417,209.433 93.18,210.447 C92.18,211.327 92.25,212.017 93.18,212.877 C94.635,214.313 95.752,216.055 96.45,217.977 C96.85,218.977 98.78,219.287 98.01,220.387 C97.62,220.957 95.86,220.557 94.73,220.647 C93.6,220.737 93.81,219.587 93.38,219.197 C92.157,217.951 91.198,216.471 90.56,214.847 C89.944,213.546 88.969,212.45 87.75,211.687 C86.86,211.077 85.51,212.007 85.5,213.147 C85.5,215.147 85.38,217.147 85.5,219.147 C85.62,221.147 84.26,220.587 83.22,220.677 C82.18,220.767 81.38,220.677 81.44,219.147 C81.61,215.937 81.5,212.787 81.5,209.627 z M85.5,205.697 C85.5,209.157 85.27,208.567 87.85,208.597 C90.19,208.597 92.66,206.847 92.49,205.337 C92.32,203.827 89.39,201.557 87.78,201.627 C86.17,201.697 85.5,202.777 85.5,205.717 z" fill="#F08B34"/>
      <path d="M128.74,203.627 L131.74,203.627 C132.38,203.627 133.23,203.417 133.47,204.147 C133.77,205.077 133.36,205.677 132.21,205.657 C131.72,205.657 131.47,206.117 131.5,206.707 C131.5,207.527 131.5,208.357 131.5,209.187 C131.5,213.187 130.15,214.447 126,214.597 C125.33,214.597 124.67,214.597 124,214.597 C123.33,214.597 122.66,214.457 122.51,215.387 C122.36,216.317 123.02,216.507 123.41,217.007 C123.845,217.503 124.513,217.728 125.16,217.597 C126.318,217.687 127.482,217.687 128.64,217.597 C131.03,217.167 132.44,218.597 133.43,220.257 C134.42,221.917 133.24,225.117 131.3,226.257 C130.14,226.917 128.99,227.937 127.4,227.667 C124.9,227.227 122.31,228.397 119.81,226.667 C117.31,224.937 116.54,223.167 118.62,221.087 C119.82,219.887 120.39,218.847 119.53,217.277 C119.41,216.954 119.41,216.599 119.53,216.277 C120.27,213.807 120.53,212.747 119.53,211.497 C116.98,208.357 120.36,204.227 123.83,203.677 C125.463,203.533 127.105,203.516 128.74,203.627 z M125.57,220.627 C124.571,220.561 123.569,220.561 122.57,220.627 C121.388,220.706 120.472,221.692 120.48,222.877 C120.36,224.077 121.08,224.177 121.96,224.747 C124.82,226.607 127.11,225.397 129.47,224.067 C130.16,223.677 130.92,222.927 130.38,222.067 C129.99,221.447 129.51,220.607 128.54,220.597 C127.57,220.587 126.57,220.627 125.57,220.627 z M125.5,212.627 C127.08,212.627 128.38,211.237 128.5,209.287 C128.59,207.907 126.71,205.807 125.22,205.637 C123.56,205.447 122.57,206.637 122.51,208.777 C122.43,211.727 123.05,212.537 125.5,212.627 z" fill="#F08B34"/>
      <path d="M109.8,217.627 L113.02,217.627 C113.52,217.627 113.95,215.627 114.46,217.527 C114.836,218.285 114.577,219.206 113.86,219.657 C111.37,221.157 105.92,220.897 103.44,219.047 C101.28,217.447 99.92,212.787 100.77,209.897 C102.45,204.197 107.6,201.897 112.56,204.657 C114.63,205.807 116.42,210.317 115.5,212.137 C115.25,212.617 114.74,212.657 114.23,212.647 C111.4,212.647 108.57,212.647 105.75,212.647 C104.38,212.647 104.33,213.067 104.89,214.537 C105.9,217.227 107.56,218.547 109.8,217.627 z M108.08,210.627 C108.73,210.627 109.39,210.627 110.08,210.627 C110.615,210.628 111.115,210.359 111.408,209.911 C111.701,209.462 111.747,208.896 111.53,208.407 C111.185,207.524 110.443,206.857 109.53,206.607 C107.4,206.077 106.25,207.407 104.99,208.687 C104.634,209.017 104.485,209.515 104.6,209.987 C104.73,210.477 105.15,210.667 105.7,210.637 C106.5,210.627 107.27,210.627 108.08,210.627 z" fill="#F08B34"/>
      <path d="M184.36,217.627 C185.189,217.582 186.021,217.582 186.85,217.627 C187.44,217.687 187.8,215.627 188.4,217.377 C188.622,217.803 188.649,218.305 188.475,218.753 C188.301,219.201 187.942,219.552 187.49,219.717 C185.766,220.617 183.784,220.893 181.88,220.497 C180.28,220.177 178.45,219.947 177.15,218.747 C175.033,216.724 174.053,213.785 174.53,210.897 C175.22,204.687 180.98,201.727 186.39,204.627 C188.64,205.837 190.28,209.737 189.46,211.977 C189.17,212.777 188.46,212.617 187.82,212.617 C184.99,212.617 182.16,212.617 179.34,212.617 C178.34,212.617 178.34,213.427 178.5,214.027 C179.5,217.027 180.56,217.627 184.36,217.627 z M181.78,210.627 L183.78,210.627 C184.41,210.627 185.34,210.817 185.46,210.117 C185.61,209.257 185.85,208.237 184.88,207.447 C183.74,206.507 181.65,206.137 180.57,207.177 C179.73,207.987 177.99,208.597 178.66,210.177 C179.08,211.177 180.42,210.497 181.34,210.647 C181.487,210.648 181.634,210.641 181.78,210.627 z" fill="#F08B34"/>
      <path d="M150.65,220.627 C149.193,220.695 147.742,220.385 146.44,219.727 C145.3,219.197 145.57,218.557 145.51,217.837 C145.4,216.657 146.42,216.197 147,216.757 C148.76,218.447 150.79,217.327 152.66,217.567 C153.1,217.627 153.75,216.937 154.14,216.457 C154.84,215.587 153.69,215.457 153.38,215.087 C152.23,213.737 150.55,213.247 149.03,212.457 C148.25,212.047 147.03,211.997 146.42,210.767 C145.13,208.227 145.12,207.187 147.26,205.397 C149.968,203.364 153.599,203.058 156.61,204.607 C157.41,204.987 157.75,205.607 157.43,205.997 C157.11,206.387 156.81,207.997 155.43,207.127 C153.76,206.127 151.91,206.797 150.14,206.717 C149.37,206.717 149.21,207.717 149.6,208.197 C150.22,208.91 151.002,209.466 151.88,209.817 C152.884,210.237 153.853,210.736 154.78,211.307 C155.69,211.897 157.16,212.157 157.38,213.177 C157.805,214.789 157.805,216.484 157.38,218.097 C156.87,219.557 154.99,220.097 153.52,220.577 C152.571,220.735 151.604,220.752 150.65,220.627 z" fill="#F08B34"/>
      <path d="M162.39,211.477 C162.526,210.005 162.505,208.524 162.33,207.057 C161.89,204.977 161.6,204.847 162.43,204.267 C163.59,203.467 163.32,201.897 164.48,201.087 C165.64,200.277 166.37,200.467 166.41,201.757 C166.46,203.257 166.88,203.667 168.41,203.757 C169.54,203.757 171.67,202.517 171.53,205.357 C171.41,207.827 169.53,206.687 168.53,206.587 C166.53,206.397 166.34,207.327 166.45,208.907 C166.56,210.487 166.45,212.217 166.45,213.907 C166.45,217.137 166.6,217.257 170.02,217.667 C170.66,217.747 171.34,217.597 171.45,218.547 C171.472,219.226 171.075,219.849 170.45,220.117 C167.68,221.947 162.85,219.797 162.45,216.517 C162.349,214.851 162.349,213.182 162.45,211.517 z" fill="#F08B34"/>
      <path d="M193.5,211.827 C193.5,209.677 193.5,207.527 193.5,205.387 C193.5,204.647 193.18,203.617 194.5,203.647 C195.41,203.647 196.58,203.267 196.5,204.947 C196.5,205.307 197.06,205.697 197.38,206.057 C197.7,206.417 197.95,206.737 198.44,206.177 C199.09,205.427 199.86,204.787 200.53,204.057 C201.142,203.473 202.055,203.336 202.81,203.717 C204.15,204.347 203.32,205.717 203.42,206.797 C203.52,207.877 202.66,207.567 202.02,207.647 C198.5,208.107 197.51,209.167 197.46,212.477 C197.46,214.477 197.46,216.477 197.46,218.417 C197.46,220.777 197.41,220.717 194.89,220.637 C193.89,220.637 193.43,220.347 193.45,219.257 C193.5,216.787 193.5,214.307 193.5,211.827 z" fill="#F08B34"/>
      <path d="M141.5,212.097 C141.5,214.417 141.41,216.737 141.5,219.097 C141.58,220.537 140.91,220.757 139.74,220.657 C139.08,220.657 138.42,220.657 137.74,220.657 C137.06,220.657 136.45,220.657 136.45,219.657 Q136.45,212.197 136.45,204.747 C136.45,203.837 136.96,203.687 137.69,203.687 C138.42,203.687 139.35,203.687 140.17,203.687 C141.33,203.607 141.5,204.217 141.48,205.187 C141.5,207.457 141.5,209.777 141.5,212.097 z" fill="#F08B34"/>
      <path d="M141.5,198.837 C141.5,200.207 140.5,201.627 139.5,201.647 C138.5,201.667 137.5,200.297 137.5,198.907 C137.4,197.247 138.59,197.677 139.5,197.667 C141.5,197.627 141.5,197.627 141.5,198.837 z" fill="#F08B34"/>
      <path d="M85.5,205.717 C85.5,202.777 86.1,201.717 87.78,201.647 C89.46,201.577 92.33,203.887 92.49,205.357 C92.65,206.827 90.19,208.657 87.85,208.617 C85.3,208.627 85.5,209.177 85.5,205.717 z" fill="#565656"/>
      <path d="M125.57,220.627 C126.57,220.627 127.57,220.627 128.57,220.627 C129.57,220.627 130.02,221.477 130.41,222.097 C130.95,222.947 130.19,223.697 129.5,224.097 C127.14,225.427 124.85,226.637 121.99,224.777 C121.11,224.207 120.39,224.107 120.51,222.907 C120.502,221.722 121.418,220.736 122.6,220.657 C123.588,220.582 124.58,220.572 125.57,220.627 z" fill="#565656"/>
      <path d="M125.5,212.627 C123.05,212.537 122.43,211.727 122.5,208.777 C122.56,206.597 123.5,205.447 125.21,205.637 C126.7,205.807 128.58,207.907 128.49,209.287 C128.38,211.237 127.08,212.677 125.5,212.627 z" fill="#565656"/>
      <path d="M108.08,210.627 C107.27,210.627 106.45,210.627 105.64,210.627 C105.09,210.627 104.64,210.467 104.54,209.977 C104.425,209.505 104.574,209.007 104.93,208.677 C106.19,207.397 107.34,206.067 109.47,206.597 C110.383,206.847 111.125,207.514 111.47,208.397 C111.687,208.886 111.641,209.452 111.348,209.901 C111.055,210.349 110.555,210.618 110.02,210.617 C109.39,210.627 108.73,210.627 108.08,210.627 z" fill="#565656"/>
      <path d="M181.78,210.627 C181.617,210.637 181.453,210.637 181.29,210.627 C180.37,210.477 179.03,211.147 178.61,210.157 C177.94,208.597 179.68,207.987 180.52,207.157 C181.6,206.157 183.69,206.487 184.83,207.427 C185.83,208.217 185.56,209.237 185.41,210.097 C185.29,210.797 184.41,210.597 183.73,210.607 z" fill="#565656"/>
    </g>
  </g>
</svg>
