<?xml version="1.0" encoding="UTF-8" standalone="no"?>
<!-- Created with Inkscape (http://www.inkscape.org/) -->

<svg
   xmlns:osb="http://www.openswatchbook.org/uri/2009/osb"
   xmlns:dc="http://purl.org/dc/elements/1.1/"
   xmlns:cc="http://creativecommons.org/ns#"
   xmlns:rdf="http://www.w3.org/1999/02/22-rdf-syntax-ns#"
   xmlns:svg="http://www.w3.org/2000/svg"
   xmlns="http://www.w3.org/2000/svg"
   xmlns:xlink="http://www.w3.org/1999/xlink"
   xmlns:sodipodi="http://sodipodi.sourceforge.net/DTD/sodipodi-0.dtd"
   xmlns:inkscape="http://www.inkscape.org/namespaces/inkscape"
   width="500"
   height="500"
   id="svg2"
   version="1.1"
   inkscape:version="0.48.4 r9939"
   sodipodi:docname="psudo.svg">
  <defs
     id="defs4">
    <linearGradient
       id="linearGradient6027">
      <stop
         style="stop-color:#ffffff;stop-opacity:1;"
         offset="0"
         id="stop6029" />
      <stop
         id="stop6037"
         offset="0.57317072"
         style="stop-color:#f18f34;stop-opacity:1;" />
      <stop
         style="stop-color:#f18f34;stop-opacity:1;"
         offset="1"
         id="stop6031" />
    </linearGradient>
    <linearGradient
       id="linearGradient6019"
       osb:paint="solid">
      <stop
         style="stop-color:#565656;stop-opacity:1;"
         offset="0"
         id="stop6021" />
    </linearGradient>
    <linearGradient
       id="linearGradient3805"
       osb:paint="solid">
      <stop
         style="stop-color:#666666;stop-opacity:1;"
         offset="0"
         id="stop3807" />
    </linearGradient>
    <radialGradient
       inkscape:collect="always"
       xlink:href="#linearGradient6027"
       id="radialGradient6035"
       cx="111.11678"
       cy="129.52655"
       fx="111.11678"
       fy="129.52655"
       r="7.0710678"
       gradientTransform="matrix(1,0,0,0.9642857,0,4.6259495)"
       gradientUnits="userSpaceOnUse" />
  </defs>
  <sodipodi:namedview
     id="base"
     pagecolor="#ffffff"
     bordercolor="#666666"
     borderopacity="1.0"
     inkscape:pageopacity="0"
     inkscape:pageshadow="2"
     inkscape:zoom="0.35"
     inkscape:cx="-653.53815"
     inkscape:cy="204.14679"
     inkscape:document-units="px"
     inkscape:current-layer="layer1"
     showgrid="false"
     inkscape:showpageshadow="false"
     inkscape:window-width="1920"
     inkscape:window-height="1138"
     inkscape:window-x="0"
     inkscape:window-y="23"
     inkscape:window-maximized="1" />
  <metadata
     id="metadata7">
    <rdf:RDF>
      <cc:Work
         rdf:about="">
        <dc:format>image/svg+xml</dc:format>
        <dc:type
           rdf:resource="http://purl.org/dc/dcmitype/StillImage" />
        <dc:title></dc:title>
      </cc:Work>
    </rdf:RDF>
  </metadata>
  <g
     inkscape:label="Layer 1"
     inkscape:groupmode="layer"
     id="layer1"
     transform="translate(0,-552.36218)"
     style="display:inline">
    <g
       id="g5936"
       transform="translate(-6.8922432,-8.672904)">
      <path
         transform="matrix(1.1308169,0,0,1.1543756,-54.359839,538.32153)"
         d="m 281.42856,222.14285 c 0,9.46774 -7.83502,17.14286 -17.5,17.14286 -9.66498,0 -17.5,-7.67512 -17.5,-17.14286 0,-9.46774 7.83502,-17.14285 17.5,-17.14285 9.66498,0 17.5,7.67511 17.5,17.14285 z"
         sodipodi:ry="17.142857"
         sodipodi:rx="17.5"
         sodipodi:cy="222.14285"
         sodipodi:cx="263.92856"
         id="path5675"
         style="fill:#565656;fill-opacity:1;stroke:#ffffff;stroke-width:1.9991436;stroke-linecap:round;stroke-linejoin:round;stroke-miterlimit:4;stroke-opacity:1;stroke-dasharray:none"
         sodipodi:type="arc" />
      <path
         transform="matrix(1.1308169,0,0,1.1543756,-30.096505,535.98598)"
         d="m 281.42856,222.14285 c 0,9.46774 -7.83502,17.14286 -17.5,17.14286 -9.66498,0 -17.5,-7.67512 -17.5,-17.14286 0,-9.46774 7.83502,-17.14285 17.5,-17.14285 9.66498,0 17.5,7.67511 17.5,17.14285 z"
         sodipodi:ry="17.142857"
         sodipodi:rx="17.5"
         sodipodi:cy="222.14285"
         sodipodi:cx="263.92856"
         id="path5675-4"
         style="fill:#565656;fill-opacity:1;stroke:#ffffff;stroke-width:1.9991436;stroke-linecap:round;stroke-linejoin:round;stroke-miterlimit:4;stroke-opacity:1;stroke-dasharray:none;display:inline"
         sodipodi:type="arc" />
      <path
         transform="matrix(1.1308169,0,0,1.1543756,-63.098959,553.21812)"
         d="m 281.42856,222.14285 c 0,9.46774 -7.83502,17.14286 -17.5,17.14286 -9.66498,0 -17.5,-7.67512 -17.5,-17.14286 0,-9.46774 7.83502,-17.14285 17.5,-17.14285 9.66498,0 17.5,7.67511 17.5,17.14285 z"
         sodipodi:ry="17.142857"
         sodipodi:rx="17.5"
         sodipodi:cy="222.14285"
         sodipodi:cx="263.92856"
         id="path5675-4-2"
         style="fill:#565656;fill-opacity:1;stroke:#ffffff;stroke-width:1.9991436;stroke-linecap:round;stroke-linejoin:round;stroke-miterlimit:4;stroke-opacity:1;stroke-dasharray:none;display:inline"
         sodipodi:type="arc" />
      <path
         transform="matrix(1.1308169,0,0,1.1543756,-40.026303,546.35446)"
         d="m 281.42856,222.14285 c 0,9.46774 -7.83502,17.14286 -17.5,17.14286 -9.66498,0 -17.5,-7.67512 -17.5,-17.14286 0,-9.46774 7.83502,-17.14285 17.5,-17.14285 9.66498,0 17.5,7.67511 17.5,17.14285 z"
         sodipodi:ry="17.142857"
         sodipodi:rx="17.5"
         sodipodi:cy="222.14285"
         sodipodi:cx="263.92856"
         id="path5675-4-2-5-4"
         style="fill:#565656;fill-opacity:1;stroke:#ffffff;stroke-width:1.9991436;stroke-linecap:round;stroke-linejoin:round;stroke-miterlimit:4;stroke-opacity:1;stroke-dasharray:none;display:inline"
         sodipodi:type="arc" />
      <path
         transform="matrix(1.1308169,0,0,1.1543756,-20.026303,550.21161)"
         d="m 281.42856,222.14285 c 0,9.46774 -7.83502,17.14286 -17.5,17.14286 -9.66498,0 -17.5,-7.67512 -17.5,-17.14286 0,-9.46774 7.83502,-17.14285 17.5,-17.14285 9.66498,0 17.5,7.67511 17.5,17.14285 z"
         sodipodi:ry="17.142857"
         sodipodi:rx="17.5"
         sodipodi:cy="222.14285"
         sodipodi:cx="263.92856"
         id="path5675-4-2-5-42"
         style="fill:#565656;fill-opacity:1;stroke:#ffffff;stroke-width:1.9991436;stroke-linecap:round;stroke-linejoin:round;stroke-miterlimit:4;stroke-opacity:1;stroke-dasharray:none;display:inline"
         sodipodi:type="arc" />
      <path
         transform="matrix(1.1308169,0,0,1.1543756,-53.454874,573.21161)"
         d="m 281.42856,222.14285 c 0,9.46774 -7.83502,17.14286 -17.5,17.14286 -9.66498,0 -17.5,-7.67512 -17.5,-17.14286 0,-9.46774 7.83502,-17.14285 17.5,-17.14285 9.66498,0 17.5,7.67511 17.5,17.14285 z"
         sodipodi:ry="17.142857"
         sodipodi:rx="17.5"
         sodipodi:cy="222.14285"
         sodipodi:cx="263.92856"
         id="path5675-4-2-5-3"
         style="fill:#565656;fill-opacity:1;stroke:#ffffff;stroke-width:1.9991436;stroke-linecap:round;stroke-linejoin:round;stroke-miterlimit:4;stroke-opacity:1;stroke-dasharray:none;display:inline"
         sodipodi:type="arc" />
      <path
         transform="matrix(1.1308169,0,0,1.1543756,-28.740589,567.64018)"
         d="m 281.42856,222.14285 c 0,9.46774 -7.83502,17.14286 -17.5,17.14286 -9.66498,0 -17.5,-7.67512 -17.5,-17.14286 0,-9.46774 7.83502,-17.14285 17.5,-17.14285 9.66498,0 17.5,7.67511 17.5,17.14285 z"
         sodipodi:ry="17.142857"
         sodipodi:rx="17.5"
         sodipodi:cy="222.14285"
         sodipodi:cx="263.92856"
         id="path5675-4-2-5-6"
         style="fill:#565656;fill-opacity:1;stroke:#ffffff;stroke-width:1.9991436;stroke-linecap:round;stroke-linejoin:round;stroke-miterlimit:4;stroke-opacity:1;stroke-dasharray:none;display:inline"
         sodipodi:type="arc" />
      <path
         transform="matrix(1.1308169,0,0,1.1543756,-45.760351,558.29438)"
         d="m 281.42856,222.14285 c 0,9.46774 -7.83502,17.14286 -17.5,17.14286 -9.66498,0 -17.5,-7.67512 -17.5,-17.14286 0,-9.46774 7.83502,-17.14285 17.5,-17.14285 9.66498,0 17.5,7.67511 17.5,17.14285 z"
         sodipodi:ry="17.142857"
         sodipodi:rx="17.5"
         sodipodi:cy="222.14285"
         sodipodi:cx="263.92856"
         id="path5675-4-2-5"
         style="fill:#565656;fill-opacity:1;stroke:#ffffff;stroke-width:1.9991436;stroke-linecap:round;stroke-linejoin:round;stroke-miterlimit:4;stroke-opacity:1;stroke-dasharray:none;display:inline"
         sodipodi:type="arc" />
    </g>
    <path
       sodipodi:type="arc"
       style="fill:none;stroke:#565656;stroke-width:5.81808567;stroke-linecap:round;stroke-linejoin:round;stroke-miterlimit:4;stroke-opacity:1;stroke-dasharray:none"
       id="path5737"
       sodipodi:cx="243.95184"
       sodipodi:cy="267.41238"
       sodipodi:rx="44.446712"
       sodipodi:ry="137.1282"
       d="m 288.39856,267.41238 a 44.446712,137.1282 0 1 1 -88.89343,0 44.446712,137.1282 0 1 1 88.89343,0 z"
       transform="matrix(1.0857363,0,0,1.7413875,-14.867371,336.6936)" />
    <path
       sodipodi:type="arc"
       style="fill:none;stroke:#565656;stroke-width:5.81808519;stroke-linecap:round;stroke-linejoin:round;stroke-miterlimit:4;stroke-opacity:1;stroke-dasharray:none;display:inline"
       id="path5737-5"
       sodipodi:cx="243.95184"
       sodipodi:cy="267.41238"
       sodipodi:rx="44.446712"
       sodipodi:ry="137.1282"
       d="m 288.39856,267.41238 a 44.446712,137.1282 0 1 1 -88.89343,0 44.446712,137.1282 0 1 1 88.89343,0 z"
       transform="matrix(0.54286815,-0.94027522,1.5080859,0.87069375,-285.71452,798.90976)" />
    <path
       sodipodi:type="arc"
       style="fill:none;stroke:#565656;stroke-width:5.81808519;stroke-linecap:round;stroke-linejoin:round;stroke-miterlimit:4;stroke-opacity:1;stroke-dasharray:none;display:inline"
       id="path5737-9"
       sodipodi:cx="243.95184"
       sodipodi:cy="267.41238"
       sodipodi:rx="44.446712"
       sodipodi:ry="137.1282"
       d="m 288.39856,267.41238 a 44.446712,137.1282 0 1 1 -88.89343,0 44.446712,137.1282 0 1 1 88.89343,0 z"
       transform="matrix(0.54286815,0.94027522,-1.5080859,0.87069375,520.84715,340.14601)" />
    <path
       sodipodi:type="arc"
       style="fill:#f18f34;stroke:none;display:inline"
       id="path5811-8-6"
       sodipodi:cx="111.11678"
       sodipodi:cy="129.52655"
       sodipodi:rx="7.0710678"
       sodipodi:ry="6.8185296"
       d="m 118.18785,129.52655 a 7.0710678,6.8185296 0 1 1 -14.14213,0 7.0710678,6.8185296 0 1 1 14.14213,0 z"
       transform="matrix(3.3407074,0,0,3.3407074,-24.383217,372.04032)" />
    <path
       sodipodi:type="arc"
       style="fill:#f18f34;stroke:none;display:inline"
       id="path5811-8-9"
       sodipodi:cx="111.11678"
       sodipodi:cy="129.52655"
       sodipodi:rx="7.0710678"
       sodipodi:ry="6.8185296"
       d="m 118.18785,129.52655 a 7.0710678,6.8185296 0 1 1 -14.14213,0 7.0710678,6.8185296 0 1 1 14.14213,0 z"
       transform="matrix(3.3407074,0,0,3.3407074,-221.51243,362.41242)" />
    <path
       sodipodi:type="arc"
       style="fill:#f18f34;stroke:none;display:inline"
       id="path5811-8"
       sodipodi:cx="111.11678"
       sodipodi:cy="129.52655"
       sodipodi:rx="7.0710678"
       sodipodi:ry="6.8185296"
       d="m 118.18785,129.52655 a 7.0710678,6.8185296 0 1 1 -14.14213,0 7.0710678,6.8185296 0 1 1 14.14213,0 z"
       transform="matrix(3.3407074,0,0,3.3407074,-90.234088,295.098)" />
    <path
       sodipodi:type="arc"
       style="fill:#f18f34;stroke:none;display:inline"
       id="path5811-8-9-8"
       sodipodi:cx="111.11678"
       sodipodi:cy="129.52655"
       sodipodi:rx="7.0710678"
       sodipodi:ry="6.8185296"
       d="m 118.18785,129.52655 a 7.0710678,6.8185296 0 1 1 -14.14213,0 7.0710678,6.8185296 0 1 1 14.14213,0 z"
       transform="matrix(3.3407074,0,0,3.3407074,-167.63723,450.36616)" />
    <path
       sodipodi:type="arc"
       style="fill:#565656;stroke:none;display:inline"
       id="path5811-8-9-9"
       sodipodi:cx="111.11678"
       sodipodi:cy="129.52655"
       sodipodi:rx="7.0710678"
       sodipodi:ry="6.8185296"
       d="m 118.18785,129.52655 a 7.0710678,6.8185296 0 1 1 -14.14213,0 7.0710678,6.8185296 0 1 1 14.14213,0 z"
       transform="matrix(3.3407074,0,0,3.3407074,-271.59841,487.6485)" />
    <path
       sodipodi:type="arc"
       style="fill:#565656;stroke:none;display:inline"
       id="path5811-8-9-9-9"
       sodipodi:cx="111.11678"
       sodipodi:cy="129.52655"
       sodipodi:rx="7.0710678"
       sodipodi:ry="6.8185296"
       d="m 118.18785,129.52655 a 7.0710678,6.8185296 0 1 1 -14.14213,0 7.0710678,6.8185296 0 1 1 14.14213,0 z"
       transform="matrix(3.3407074,0,0,3.3407074,-98.727306,165.708)" />
    <path
       sodipodi:type="arc"
       style="fill:#565656;stroke:none;display:inline"
       id="path5811-8-9-9-4"
       sodipodi:cx="111.11678"
       sodipodi:cy="129.52655"
       sodipodi:rx="7.0710678"
       sodipodi:ry="6.8185296"
       d="m 118.18785,129.52655 a 7.0710678,6.8185296 0 1 1 -14.14213,0 7.0710678,6.8185296 0 1 1 14.14213,0 z"
       transform="matrix(3.3407074,0,0,3.3407074,26.016779,486.44593)" />
  </g>
</svg>
