<?xml version="1.0" encoding="UTF-8" standalone="no"?>
<!-- Created with Inkscape (http://www.inkscape.org/) -->

<svg
   xmlns:osb="http://www.openswatchbook.org/uri/2009/osb"
   xmlns:dc="http://purl.org/dc/elements/1.1/"
   xmlns:cc="http://creativecommons.org/ns#"
   xmlns:rdf="http://www.w3.org/1999/02/22-rdf-syntax-ns#"
   xmlns:svg="http://www.w3.org/2000/svg"
   xmlns="http://www.w3.org/2000/svg"
   xmlns:xlink="http://www.w3.org/1999/xlink"
   xmlns:sodipodi="http://sodipodi.sourceforge.net/DTD/sodipodi-0.dtd"
   xmlns:inkscape="http://www.inkscape.org/namespaces/inkscape"
   width="500"
   height="500"
   id="svg2"
   version="1.1"
   inkscape:version="0.47 r22583"
   sodipodi:docname="wiki.svg">
  <defs
     id="defs4">
    <inkscape:perspective
       sodipodi:type="inkscape:persp3d"
       inkscape:vp_x="0 : 250 : 1"
       inkscape:vp_y="0 : 1000 : 0"
       inkscape:vp_z="500 : 250 : 1"
       inkscape:persp3d-origin="250 : 166.66667 : 1"
       id="perspective2905" />
    <linearGradient
       id="linearGradient6027">
      <stop
         style="stop-color:#ffffff;stop-opacity:1;"
         offset="0"
         id="stop6029" />
      <stop
         id="stop6037"
         offset="0.57317072"
         style="stop-color:#f18f34;stop-opacity:1;" />
      <stop
         style="stop-color:#f18f34;stop-opacity:1;"
         offset="1"
         id="stop6031" />
    </linearGradient>
    <linearGradient
       id="linearGradient6019"
       osb:paint="solid">
      <stop
         style="stop-color:#565656;stop-opacity:1;"
         offset="0"
         id="stop6021" />
    </linearGradient>
    <linearGradient
       id="linearGradient3805"
       osb:paint="solid">
      <stop
         style="stop-color:#666666;stop-opacity:1;"
         offset="0"
         id="stop3807" />
    </linearGradient>
    <radialGradient
       inkscape:collect="always"
       xlink:href="#linearGradient6027"
       id="radialGradient6035"
       cx="111.11678"
       cy="129.52655"
       fx="111.11678"
       fy="129.52655"
       r="7.0710678"
       gradientTransform="matrix(1,0,0,0.9642857,0,4.6259495)"
       gradientUnits="userSpaceOnUse" />
    <inkscape:perspective
       id="perspective3085"
       inkscape:persp3d-origin="0.5 : 0.33333333 : 1"
       inkscape:vp_z="1 : 0.5 : 1"
       inkscape:vp_y="0 : 1000 : 0"
       inkscape:vp_x="0 : 0.5 : 1"
       sodipodi:type="inkscape:persp3d" />
    <inkscape:perspective
       id="perspective3938"
       inkscape:persp3d-origin="0.5 : 0.33333333 : 1"
       inkscape:vp_z="1 : 0.5 : 1"
       inkscape:vp_y="0 : 1000 : 0"
       inkscape:vp_x="0 : 0.5 : 1"
       sodipodi:type="inkscape:persp3d" />
    <inkscape:perspective
       id="perspective3966"
       inkscape:persp3d-origin="0.5 : 0.33333333 : 1"
       inkscape:vp_z="1 : 0.5 : 1"
       inkscape:vp_y="0 : 1000 : 0"
       inkscape:vp_x="0 : 0.5 : 1"
       sodipodi:type="inkscape:persp3d" />
    <inkscape:perspective
       id="perspective3989"
       inkscape:persp3d-origin="0.5 : 0.33333333 : 1"
       inkscape:vp_z="1 : 0.5 : 1"
       inkscape:vp_y="0 : 1000 : 0"
       inkscape:vp_x="0 : 0.5 : 1"
       sodipodi:type="inkscape:persp3d" />
    <inkscape:perspective
       id="perspective4013"
       inkscape:persp3d-origin="0.5 : 0.33333333 : 1"
       inkscape:vp_z="1 : 0.5 : 1"
       inkscape:vp_y="0 : 1000 : 0"
       inkscape:vp_x="0 : 0.5 : 1"
       sodipodi:type="inkscape:persp3d" />
    <inkscape:perspective
       id="perspective4036"
       inkscape:persp3d-origin="0.5 : 0.33333333 : 1"
       inkscape:vp_z="1 : 0.5 : 1"
       inkscape:vp_y="0 : 1000 : 0"
       inkscape:vp_x="0 : 0.5 : 1"
       sodipodi:type="inkscape:persp3d" />
    <inkscape:perspective
       id="perspective4059"
       inkscape:persp3d-origin="0.5 : 0.33333333 : 1"
       inkscape:vp_z="1 : 0.5 : 1"
       inkscape:vp_y="0 : 1000 : 0"
       inkscape:vp_x="0 : 0.5 : 1"
       sodipodi:type="inkscape:persp3d" />
    <inkscape:perspective
       id="perspective4081"
       inkscape:persp3d-origin="0.5 : 0.33333333 : 1"
       inkscape:vp_z="1 : 0.5 : 1"
       inkscape:vp_y="0 : 1000 : 0"
       inkscape:vp_x="0 : 0.5 : 1"
       sodipodi:type="inkscape:persp3d" />
    <inkscape:perspective
       id="perspective4103"
       inkscape:persp3d-origin="0.5 : 0.33333333 : 1"
       inkscape:vp_z="1 : 0.5 : 1"
       inkscape:vp_y="0 : 1000 : 0"
       inkscape:vp_x="0 : 0.5 : 1"
       sodipodi:type="inkscape:persp3d" />
    <inkscape:perspective
       id="perspective4125"
       inkscape:persp3d-origin="0.5 : 0.33333333 : 1"
       inkscape:vp_z="1 : 0.5 : 1"
       inkscape:vp_y="0 : 1000 : 0"
       inkscape:vp_x="0 : 0.5 : 1"
       sodipodi:type="inkscape:persp3d" />
    <inkscape:perspective
       id="perspective4147"
       inkscape:persp3d-origin="0.5 : 0.33333333 : 1"
       inkscape:vp_z="1 : 0.5 : 1"
       inkscape:vp_y="0 : 1000 : 0"
       inkscape:vp_x="0 : 0.5 : 1"
       sodipodi:type="inkscape:persp3d" />
    <inkscape:perspective
       id="perspective4169"
       inkscape:persp3d-origin="0.5 : 0.33333333 : 1"
       inkscape:vp_z="1 : 0.5 : 1"
       inkscape:vp_y="0 : 1000 : 0"
       inkscape:vp_x="0 : 0.5 : 1"
       sodipodi:type="inkscape:persp3d" />
    <inkscape:perspective
       id="perspective4198"
       inkscape:persp3d-origin="0.5 : 0.33333333 : 1"
       inkscape:vp_z="1 : 0.5 : 1"
       inkscape:vp_y="0 : 1000 : 0"
       inkscape:vp_x="0 : 0.5 : 1"
       sodipodi:type="inkscape:persp3d" />
    <inkscape:perspective
       id="perspective4220"
       inkscape:persp3d-origin="0.5 : 0.33333333 : 1"
       inkscape:vp_z="1 : 0.5 : 1"
       inkscape:vp_y="0 : 1000 : 0"
       inkscape:vp_x="0 : 0.5 : 1"
       sodipodi:type="inkscape:persp3d" />
    <inkscape:perspective
       id="perspective4363"
       inkscape:persp3d-origin="0.5 : 0.33333333 : 1"
       inkscape:vp_z="1 : 0.5 : 1"
       inkscape:vp_y="0 : 1000 : 0"
       inkscape:vp_x="0 : 0.5 : 1"
       sodipodi:type="inkscape:persp3d" />
    <inkscape:perspective
       id="perspective5079"
       inkscape:persp3d-origin="0.5 : 0.33333333 : 1"
       inkscape:vp_z="1 : 0.5 : 1"
       inkscape:vp_y="0 : 1000 : 0"
       inkscape:vp_x="0 : 0.5 : 1"
       sodipodi:type="inkscape:persp3d" />
  </defs>
  <sodipodi:namedview
     id="base"
     pagecolor="#ffffff"
     bordercolor="#666666"
     borderopacity="1.0"
     inkscape:pageopacity="0"
     inkscape:pageshadow="2"
     inkscape:zoom="1.4"
     inkscape:cx="275.95386"
     inkscape:cy="175.50738"
     inkscape:document-units="px"
     inkscape:current-layer="layer1"
     showgrid="false"
     inkscape:showpageshadow="false"
     inkscape:window-width="2512"
     inkscape:window-height="1574"
     inkscape:window-x="48"
     inkscape:window-y="0"
     inkscape:window-maximized="1" />
  <metadata
     id="metadata7">
    <rdf:RDF>
      <cc:Work
         rdf:about="">
        <dc:format>image/svg+xml</dc:format>
        <dc:type
           rdf:resource="http://purl.org/dc/dcmitype/StillImage" />
        <dc:title />
      </cc:Work>
    </rdf:RDF>
  </metadata>
  <g
     inkscape:label="Layer 1"
     inkscape:groupmode="layer"
     id="layer1"
     transform="translate(0,-552.36218)"
     style="display:inline">
    <g
       id="g4243" />
    <g
       id="g5095"
       transform="translate(1.5e-6,1.4e-4)">
      <path
         transform="translate(0,552.36218)"
         id="path3114-5"
         d="m 189.90625,25.9375 c -4.61219,1.272405 -9.16491,2.697996 -13.65625,4.25 1.30363,-0.447392 2.62332,-0.888287 3.9375,-1.3125 1.05542,1.4994 2.49649,2.5456 4.4375,3.03125 1.65249,0.136215 2.77124,-0.525816 3.875,-1.09375 l 1.40625,-4.875 z m -14.625,9.125 c -1.18938,0.0834 -2.03531,0.86838 -2.9375,1.5625 l -12.46875,19.46875 19.5,12.5 c 0.73516,1.01619 1.68915,1.90452 1.78125,3.21875 -0.17209,2.1851 -1.0678,4.07239 -2.875,5.53125 -2.77724,1.5762 -5.02115,-0.38234 -7.34375,1.5625 -2.28677,3.03798 -1.49306,5.56887 -0.78125,7.9375 0.67275,2.19814 1.89241,3.666 3.40625,4.53125 l 0,-0.03125 c 1.4216,1.00968 3.28525,1.50139 5.5625,1.1875 2.44837,-0.35015 5.08019,-0.71029 6.875,-4.0625 0.78794,-2.92507 -1.94984,-4.12993 -1.6875,-7.3125 0.56373,-2.25309 1.87106,-3.86256 3.78125,-4.9375 1.17856,-0.449 2.38196,5.3e-4 3.5625,0.25 l 18.71875,12 0,-0.03125 19.5,12.5 c 0.73516,1.01619 1.68915,1.90452 1.78125,3.21875 -0.17209,2.1851 -1.0678,4.07239 -2.875,5.53125 -2.77724,1.5762 -5.02115,-0.38234 -7.34375,1.5625 -2.28677,3.03798 -1.49306,5.56887 -0.78125,7.9375 0.67275,2.19814 1.89251,3.6661 3.40625,4.53125 l 0,-0.0312 c 1.4216,1.00968 3.28525,1.50139 5.5625,1.1875 2.44837,-0.35015 5.08019,-0.71029 6.875,-4.0625 0.78794,-2.92507 -1.94984,-4.12993 -1.6875,-7.3125 0.56373,-2.25309 1.87106,-3.86256 3.78125,-4.9375 1.17856,-0.449 2.38196,5.3e-4 3.5625,0.25 l 18.5,11.84375 -12.40625,19.3125 c -0.25005,1.06194 -0.55881,2.13086 -0.15625,3.1875 1.07494,1.91019 2.68441,3.21752 4.9375,3.78125 3.18257,0.26234 4.38743,-2.47544 7.3125,-1.6875 3.35221,1.79481 3.71235,4.42663 4.0625,6.875 0.31389,2.27725 -0.17782,4.1409 -1.1875,5.5625 l 0.0312,0 c -0.86525,1.51384 -2.33311,2.7335 -4.53125,3.40625 -2.36863,0.71181 -4.89952,1.50552 -7.9375,-0.78125 -1.94484,-2.3226 0.0137,-4.56651 -1.5625,-7.34375 -1.45886,-1.8072 -3.34615,-2.70291 -5.53125,-2.875 -1.18938,0.0834 -2.03531,0.86838 -2.9375,1.5625 l -12.46875,19.46875 19.5,12.5 c 0.73516,1.01619 1.68915,1.90452 1.78125,3.21875 -0.17209,2.1851 -1.0678,4.07239 -2.875,5.53125 -2.77724,1.5762 -5.02115,-0.38234 -7.34375,1.5625 -2.28677,3.03798 -1.49306,5.56887 -0.78125,7.9375 0.67275,2.19814 1.89241,3.666 3.40625,4.53125 l 0,-0.0312 c 1.4216,1.00968 3.28525,1.50139 5.5625,1.1875 2.44837,-0.35015 5.08019,-0.71029 6.875,-4.0625 0.78794,-2.92507 -1.94984,-4.12993 -1.6875,-7.3125 0.56373,-2.25309 1.87106,-3.86256 3.78125,-4.9375 1.17856,-0.449 2.38196,5.3e-4 3.5625,0.25 l 18.71875,12 12.65625,-19.71875 c 0.99371,-0.72936 1.86551,-1.6595 3.15625,-1.75 2.1851,0.17209 4.07239,1.0678 5.53125,2.875 1.5762,2.77724 -0.38234,5.02115 1.5625,7.34375 3.03798,2.28677 5.56887,1.49306 7.9375,0.78125 2.19814,-0.67275 3.666,-1.89241 4.53125,-3.40625 l -0.0312,0 c 1.00968,-1.4216 1.50139,-3.28525 1.1875,-5.5625 -0.35015,-2.44837 -0.71029,-5.08019 -4.0625,-6.875 -2.92507,-0.78794 -4.12993,1.94984 -7.3125,1.6875 -2.25309,-0.56373 -3.86256,-1.87106 -4.9375,-3.78125 -0.44135,-1.15847 -0.0328,-2.33887 0.21875,-3.5 L 311.15625,153 323.8125,133.3125 c 0.99371,-0.72936 1.86551,-1.6595 3.15625,-1.75 2.1851,0.17209 4.07239,1.0678 5.53125,2.875 1.5762,2.77724 -0.38234,5.02115 1.5625,7.34375 3.03798,2.28677 5.56887,1.49306 7.9375,0.78125 2.19814,-0.67275 3.666,-1.89241 4.53125,-3.40625 l -0.0312,0 c 1.00968,-1.4216 1.50139,-3.28525 1.1875,-5.5625 -0.35015,-2.44837 -0.71029,-5.08019 -4.0625,-6.875 -2.92507,-0.78794 -4.12993,1.94984 -7.3125,1.6875 -2.25309,-0.56373 -3.86256,-1.87106 -4.9375,-3.78125 -0.44135,-1.15847 -0.0328,-2.33887 0.21875,-3.5 l 11.9375,-18.59375 0.1875,0.125 9.15625,-14.25 -15.6875,-4.625 c -1.20303,0.0934 -2.46415,-0.0178 -3.46875,0.75 -1.5305,1.57996 -2.343,3.50689 -2.25,5.84375 0.64385,3.14957 3.6204,3.54405 3.6875,6.59375 -0.77894,3.74779 -3.21785,4.84287 -5.46875,5.875 -2.09691,0.94857 -4.00797,1.01029 -5.65625,0.4375 l 0,0.0312 c -1.69614,-0.40709 -3.29837,-1.47287 -4.5625,-3.40625 C 318.11918,97.81919 316.66053,95.58352 318,92 c 1.68146,-2.53741 4.3723,-1.2837 6.59375,-3.59375 1.32362,-1.92175 1.66849,-3.99607 1.21875,-6.15625 -0.45823,-1.2438 -1.63359,-1.82014 -2.625,-2.59375 l -22.21875,-6.5625 -21.1875,-6.25 c -1.20303,0.0934 -2.46415,-0.0178 -3.46875,0.75 -1.5305,1.57997 -2.343,3.53815 -2.25,5.875 0.64385,3.14957 3.6204,3.51281 3.6875,6.5625 -0.77894,3.74779 -3.21785,4.87411 -5.46875,5.90625 -2.09691,0.94857 -4.00797,1.01029 -5.65625,0.4375 l 0,0.03125 c -1.69614,-0.40709 -3.26712,-1.50412 -4.53125,-3.4375 -1.34957,-2.08705 -2.83947,-4.32273 -1.5,-7.90625 1.68146,-2.53741 4.40355,-1.2837 6.625,-3.59375 1.32362,-1.92175 1.63724,-3.96483 1.1875,-6.125 -0.45823,-1.2438 -1.63359,-1.85139 -2.625,-2.625 l -22.21875,-6.5625 0.0312,-0.09375 -21.28125,-6.25 c -1.20303,0.0934 -2.4954,0.0134 -3.5,0.78125 -1.5305,1.57996 -2.31175,3.5069 -2.21875,5.84375 0.64385,3.14958 3.58915,3.51282 3.65625,6.5625 -0.77894,3.7478 -3.1866,4.87412 -5.4375,5.90625 -2.09691,0.94858 -4.03922,0.97905 -5.6875,0.40625 l 0.0312,0.03125 c -1.69614,-0.4071 -3.29837,-1.47287 -4.5625,-3.40625 -1.34957,-2.08705 -2.80822,-4.32274 -1.46875,-7.90625 1.68146,-2.53741 4.3723,-1.25244 6.59375,-3.5625 1.32362,-1.92174 1.66849,-4.02732 1.21875,-6.1875 -0.45823,-1.24379 -1.63359,-1.82015 -2.625,-2.59375 l -13.03125,-3.84375 c -0.1447,0.279269 -0.28998,0.56079 -0.46875,0.8125 l 0.0312,0 c -0.86525,1.51384 -2.33311,2.7335 -4.53125,3.40625 -2.36863,0.71181 -4.89952,1.50552 -7.9375,-0.78125 -1.94484,-2.3226 0.0137,-4.56651 -1.5625,-7.34375 -1.45886,-1.8072 -3.34615,-2.70291 -5.53125,-2.875 z"
         style="fill:#f18f34;fill-opacity:1;stroke:#565656;stroke-width:0;stroke-linecap:round;stroke-linejoin:round;stroke-miterlimit:4;stroke-opacity:1;stroke-dasharray:none;display:inline" />
      <path
         id="path3114"
         d="m 180.1875,581.23686 c -91.517623,29.54155 -157.750003,115.58037 -157.750003,217.125 0,125.95982 101.881613,228.06254 227.562503,228.06254 125.68089,0 227.5625,-102.10271 227.5625,-228.06253 0,-79.98325 -41.08116,-150.34959 -103.25,-191.0625 l -10.15625,15.8125 c -0.25155,1.16113 -0.6601,2.34153 -0.21875,3.5 1.07494,1.91019 2.68441,3.21752 4.9375,3.78125 3.18257,0.26234 4.38743,-2.47544 7.3125,-1.6875 3.35221,1.79481 3.71235,4.42663 4.0625,6.875 0.31389,2.27725 -0.17782,4.1409 -1.1875,5.5625 l 0.0312,0 c -0.86525,1.51384 -2.33311,2.7335 -4.53125,3.40625 -2.36863,0.71181 -4.89952,1.50552 -7.9375,-0.78125 -1.94484,-2.3226 0.0137,-4.56651 -1.5625,-7.34375 -1.45886,-1.8072 -3.34615,-2.70291 -5.53125,-2.875 -1.29074,0.0905 -2.16254,1.02064 -3.15625,1.75 l -12.65625,19.71875 -0.1875,-0.125 -11.9375,18.59375 c -0.25155,1.16113 -0.6601,2.34153 -0.21875,3.5 1.07494,1.91019 2.68441,3.21752 4.9375,3.78125 3.18257,0.26234 4.38743,-2.47544 7.3125,-1.6875 3.35221,1.79481 3.71235,4.42663 4.0625,6.875 0.31389,2.27725 -0.17782,4.1409 -1.1875,5.5625 l 0.0312,0 c -0.86525,1.51384 -2.33311,2.7335 -4.53125,3.40625 -2.36863,0.71181 -4.89952,1.50552 -7.9375,-0.78125 -1.94484,-2.3226 0.0137,-4.56651 -1.5625,-7.34375 -1.45886,-1.8072 -3.34615,-2.70291 -5.53125,-2.875 -1.29074,0.0905 -2.16254,1.02064 -3.15625,1.75 l -12.65625,19.6875 -11.9375,18.59375 c -0.25155,1.16113 -0.6601,2.34153 -0.21875,3.5 1.07494,1.91019 2.68441,3.21752 4.9375,3.78125 3.18257,0.26234 4.38743,-2.47544 7.3125,-1.6875 3.35221,1.79481 3.71235,4.42663 4.0625,6.875 0.31389,2.27725 -0.17782,4.1409 -1.1875,5.5625 l 0.0312,0 c -0.86525,1.51384 -2.33311,2.7335 -4.53125,3.40625 -2.36863,0.71181 -4.89952,1.50552 -7.9375,-0.78125 -1.94484,-2.3226 0.0137,-4.56651 -1.5625,-7.34375 -1.45886,-1.8072 -3.34615,-2.70291 -5.53125,-2.875 -1.29074,0.0905 -2.16254,1.02064 -3.15625,1.75 l -12.65625,19.71875 -18.71875,-12 c -1.18054,-0.24947 -2.38394,-0.699 -3.5625,-0.25 -1.91019,1.07494 -3.21752,2.68441 -3.78125,4.9375 -0.26234,3.18257 2.47544,4.38743 1.6875,7.3125 -1.79481,3.35221 -4.42663,3.71235 -6.875,4.0625 -2.27725,0.31389 -4.1409,-0.17782 -5.5625,-1.1875 l 0,0.0312 c -1.51384,-0.86525 -2.7335,-2.33311 -3.40625,-4.53125 -0.71181,-2.36863 -1.50552,-4.89952 0.78125,-7.9375 2.3226,-1.94484 4.56651,0.0137 7.34375,-1.5625 1.8072,-1.45886 2.70291,-3.34615 2.875,-5.53125 -0.0921,-1.31423 -1.04609,-2.20256 -1.78125,-3.21875 l -19.5,-12.5 12.46875,-19.46875 c 0.90219,-0.69412 1.74812,-1.4791 2.9375,-1.5625 2.1851,0.17209 4.07239,1.0678 5.53125,2.875 1.5762,2.77724 -0.38234,5.02115 1.5625,7.34375 3.03798,2.28677 5.56887,1.49306 7.9375,0.78125 2.19814,-0.67275 3.666,-1.89241 4.53125,-3.40625 l -0.0312,0 c 1.00968,-1.4216 1.50139,-3.28525 1.1875,-5.5625 -0.35015,-2.44837 -0.71029,-5.08019 -4.0625,-6.875 -2.92507,-0.78794 -4.12993,1.94984 -7.3125,1.6875 -2.25309,-0.56373 -3.86256,-1.87106 -4.9375,-3.78125 -0.40256,-1.05664 -0.0938,-2.12556 0.15625,-3.1875 l 12.40625,-19.3125 -18.5,-11.84375 c -1.18054,-0.24947 -2.38394,-0.699 -3.5625,-0.25 -1.91019,1.07494 -3.21752,2.68441 -3.78125,4.9375 -0.26234,3.18257 2.47544,4.38743 1.6875,7.3125 -1.79481,3.35221 -4.42663,3.71235 -6.875,4.0625 -2.27725,0.31389 -4.1409,-0.17782 -5.5625,-1.1875 l 0,0.0312 c -1.51374,-0.86515 -2.7335,-2.33311 -3.40625,-4.53125 -0.71181,-2.36863 -1.50552,-4.89952 0.78125,-7.9375 2.3226,-1.94484 4.56651,0.0137 7.34375,-1.5625 1.8072,-1.45886 2.70291,-3.34615 2.875,-5.53125 -0.0921,-1.31423 -1.04609,-2.20256 -1.78125,-3.21875 l -19.5,-12.5 0,0.0312 -18.71875,-12 c -1.18054,-0.24947 -2.38394,-0.699 -3.5625,-0.25 -1.91019,1.07494 -3.21752,2.68441 -3.78125,4.9375 -0.26234,3.18257 2.47544,4.38743 1.6875,7.3125 -1.79481,3.35221 -4.42663,3.71235 -6.875,4.0625 -2.27725,0.31389 -4.1409,-0.17782 -5.5625,-1.1875 l 0,0.0312 c -1.51384,-0.86525 -2.7335,-2.33311 -3.40625,-4.53125 -0.71181,-2.36863 -1.50552,-4.89952 0.78125,-7.9375 2.3226,-1.94484 4.56651,0.0137 7.34375,-1.5625 1.8072,-1.45886 2.70291,-3.34615 2.875,-5.53125 -0.0921,-1.31423 -1.04609,-2.20256 -1.78125,-3.21875 l -19.5,-12.5 12.46875,-19.46875 c 0.90219,-0.69412 1.74812,-1.4791 2.9375,-1.5625 2.1851,0.17209 4.07239,1.0678 5.53125,2.875 1.5762,2.77724 -0.38234,5.02115 1.5625,7.34375 3.03798,2.28677 5.56887,1.49306 7.9375,0.78125 2.19814,-0.67275 3.666,-1.89241 4.53125,-3.40625 l -0.0312,0 c 1.00968,-1.4216 1.50139,-3.28525 1.1875,-5.5625 -0.35015,-2.44837 -0.71029,-5.08019 -4.0625,-6.875 -2.92507,-0.78794 -4.12993,1.94984 -7.3125,1.6875 -1.94101,-0.48565 -3.38208,-1.53185 -4.4375,-3.03125 z"
         style="fill:#565656;fill-opacity:1;stroke:#565656;stroke-width:0;stroke-linecap:round;stroke-linejoin:round;stroke-miterlimit:4;stroke-opacity:1;stroke-dasharray:none" />
    </g>
    <g
       id="g4183"
       transform="translate(-21.278582,25.9214)" />
    <g
       style="font-size:40px;font-style:normal;font-weight:normal;fill:#ffffff;fill-opacity:1;stroke:#ababab;font-family:Bitstream Vera Sans;stroke-width:4;stroke-miterlimit:4;stroke-dasharray:none;stroke-opacity:1"
       id="text5099">
      <path
         d="m 351.96999,796.33217 -43.56,0 0,4.18 c 11.21999,1.1 15.18,3.52 15.18,9.46 0,4.61999 -1.32,10.34 -3.52,16.5 l -27.5,74.58 -29.04,-75.02 c -0.44,-1.1 -2.42,-5.94 -2.64,-6.6 -1.98,-4.62 -3.3,-8.8 -3.3,-11.22 0,-5.28 5.06001,-7.48 16.94,-7.7 l 0,-4.18 -58.74,0 0,4.18 c 12.53999,0.22 14.74001,2.20002 22.22,19.8 l 7.26,18.04 -23.54,62.04 -31.68,-82.72 c -1.54,-3.96 -2.42,-7.7 -2.42,-10.12 0,-4.84 3.08001,-6.38 14.3,-7.04 l 0,-4.18 -53.9,0 0,4.18 c 11.21999,1.1 14.52001,5.06002 22.66,25.74 l 42.46,118.14 3.3,0 33.88,-93.06 35.2,93.06 3.3,0 c 18.69998,-57.41994 20.90003,-63.58007 44.88,-128.26 4.18,-11.43999 6.60001,-13.42 18.26,-15.62 l 0,-4.18"
         style="font-size:220px;font-variant:normal;font-stretch:normal;font-family:Nimbus Roman No9 L;-inkscape-font-specification:Nimbus Roman No9 L;stroke-width:4;stroke-miterlimit:4;stroke-dasharray:none;stroke:#ababab;stroke-opacity:1;fill:#ffffff;fill-opacity:1"
         id="path5104" />
    </g>
  </g>
</svg>
