<?xml version="1.0" encoding="UTF-8"?>
<!DOCTYPE svg PUBLIC "-//W3C//DTD SVG 1.1//EN" "http://www.w3.org/Graphics/SVG/1.1/DTD/svg11.dtd">
<svg version="1.1" xmlns="http://www.w3.org/2000/svg" xmlns:xlink="http://www.w3.org/1999/xlink" x="0" y="0" width="318.122" height="145.634" viewBox="0, 0, 318.122, 145.634">
  <defs>
    <linearGradient id="Gradient_1" gradientUnits="userSpaceOnUse" x1="-0" y1="-0" x2="1" y2="-0" gradientTransform="matrix(-233.437, -0, 0, -233.437, 310.089, 118.671)">
      <stop offset="0" stop-color="#F1923D"/>
      <stop offset="0.432" stop-color="#E9643B"/>
      <stop offset="0.432" stop-color="#E9643B"/>
      <stop offset="0.828" stop-color="#E33A37"/>
      <stop offset="1" stop-color="#E33A37"/>
    </linearGradient>
    <clipPath id="Clip_1">
      <path d="M239.41,100.157 C237.084,100.258 235.04,100.364 232.392,100.514 L232.392,100.514 L229.334,100.702 L225.756,100.941 C221.055,101.268 216.415,101.638 211.659,102.071 L211.659,102.071 C192.644,103.779 173.336,106.479 157.189,109.496 L157.189,109.496 C140.921,112.519 127.451,115.803 116.466,119.044 L116.466,119.044 C94.754,125.537 81.165,131.982 76.651,137.627 L76.651,137.627 C83.226,134.551 90.712,131.491 99.526,128.446 L99.526,128.446 C108.227,125.406 118.264,122.388 129.465,119.489 L129.465,119.489 C140.661,116.596 153.257,113.817 166.949,111.423 L166.949,111.423 C180.621,109.024 195.372,107.067 209.996,105.776 L209.996,105.776 C213.634,105.451 217.344,105.162 220.876,104.922 L220.876,104.922 L223.455,104.751 L226.506,104.568 C227.895,104.491 229.877,104.378 231.497,104.306 L231.497,104.306 C238.302,103.992 244.735,103.877 250.74,103.928 L250.74,103.928 C262.665,104.061 272.761,104.876 280.624,106.167 L280.624,106.167 C288.406,107.472 294.587,109.158 297.925,111.241 L297.925,111.241 C299.579,112.281 300.726,113.403 300.315,114.672 L300.315,114.672 C300.157,115.301 299.637,115.967 298.237,116.674 L298.237,116.674 C296.926,117.373 294.587,118.146 290.632,118.819 L290.632,118.819 C294.989,118.334 298.962,117.446 301.584,116.617 L301.584,116.617 C304.23,115.774 305.926,114.948 307.219,114.156 L307.219,114.156 C309.581,112.583 310.316,111.128 310.03,109.796 L310.03,109.796 C309.316,107.142 305.241,104.844 297.721,103.083 L297.721,103.083 C290.236,101.327 279.316,100.054 264.337,99.773 L264.337,99.773 C262.359,99.734 260.309,99.714 258.192,99.714 L258.192,99.714 C252.354,99.714 246.027,99.863 239.41,100.157"/>
    </clipPath>
    <clipPath id="Clip_2">
      <path d="M-212.166,-453.328 L531.934,-453.328 L531.934,599.034 L-212.166,599.034 L-212.166,-453.328 z"/>
    </clipPath>
    <linearGradient id="Gradient_2" gradientUnits="userSpaceOnUse" x1="-0" y1="0" x2="1" y2="0" gradientTransform="matrix(-257.872, -0, 0, -257.872, 267.001, 41.224)">
      <stop offset="0" stop-color="#F1923D"/>
      <stop offset="0.432" stop-color="#E9643B"/>
      <stop offset="0.432" stop-color="#E9643B"/>
      <stop offset="0.828" stop-color="#E33A37"/>
      <stop offset="1" stop-color="#E33A37"/>
    </linearGradient>
    <clipPath id="Clip_3">
      <path d="M262.885,19.801 C255.324,23.638 247.267,27.127 238.25,30.466 L238.25,30.466 C228.691,34.047 217.815,37.509 205.926,40.758 L205.926,40.758 C192.952,44.298 179.32,47.357 165.407,49.853 L165.407,49.853 C150.394,52.556 134.291,54.659 118.836,55.936 L118.836,55.936 C114.934,56.262 110.974,56.547 107.062,56.782 L107.062,56.782 L104.271,56.942 L100.907,57.116 C99.407,57.186 97.296,57.284 95.562,57.343 L95.562,57.343 C91.295,57.496 87.032,57.573 82.896,57.573 L82.896,57.573 C80.156,57.573 77.415,57.539 74.752,57.473 L74.752,57.473 C62.437,57.127 51.28,56.021 42.489,54.274 L42.489,54.274 C33.725,52.503 27.364,50.342 24.097,48.028 L24.097,48.028 C21.57,46.227 21.82,45.349 21.919,44.993 L21.919,44.993 C21.964,44.792 22.099,44.177 23.624,43.339 L23.624,43.339 C24.697,42.716 26.935,41.804 31.49,41.009 L31.49,41.009 L31.175,38.783 C26.916,39.244 22.391,40.191 19.064,41.313 L19.064,41.313 C16.477,42.192 14.459,43.149 12.67,44.351 L12.67,44.351 C9.934,46.346 8.771,48.484 9.226,50.756 L9.226,50.756 C10.145,54.472 14.925,57.549 23.434,59.899 L23.434,59.899 C32.489,62.406 44.777,63.958 59.955,64.514 L59.955,64.514 C63.832,64.661 68.002,64.734 72.351,64.734 L72.351,64.734 C77.06,64.734 82.017,64.648 87.089,64.476 L87.089,64.476 C89.617,64.394 91.839,64.299 94.725,64.163 L94.725,64.163 L98.049,63.988 L101.935,63.759 C107.13,63.438 112.142,63.069 117.251,62.632 L117.251,62.632 C137.129,60.953 158.145,58.088 176.429,54.564 L176.429,54.564 C192.725,51.439 207.611,47.777 220.676,43.674 L220.676,43.674 C244.145,36.208 259.231,28.527 264.307,21.461 L264.307,21.461 L267.001,17.712 L262.885,19.801 z"/>
    </clipPath>
    <clipPath id="Clip_4">
      <path d="M-212.166,-453.328 L531.934,-453.328 L531.934,599.034 L-212.166,599.034 L-212.166,-453.328 z"/>
    </clipPath>
  </defs>
  <g id="Logo">
    <g clip-path="url(#Clip_1)" id="g14">
      <path d="M239.41,100.157 C237.084,100.258 235.04,100.364 232.392,100.514 L232.392,100.514 L229.334,100.702 L225.756,100.941 C221.055,101.268 216.415,101.638 211.659,102.071 L211.659,102.071 C192.644,103.779 173.336,106.479 157.189,109.496 L157.189,109.496 C140.921,112.519 127.451,115.803 116.466,119.044 L116.466,119.044 C94.754,125.537 81.165,131.982 76.651,137.627 L76.651,137.627 C83.226,134.551 90.712,131.491 99.526,128.446 L99.526,128.446 C108.227,125.406 118.264,122.388 129.465,119.489 L129.465,119.489 C140.661,116.596 153.257,113.817 166.949,111.423 L166.949,111.423 C180.621,109.024 195.372,107.067 209.996,105.776 L209.996,105.776 C213.634,105.451 217.344,105.162 220.876,104.922 L220.876,104.922 L223.455,104.751 L226.506,104.568 C227.895,104.491 229.877,104.378 231.497,104.306 L231.497,104.306 C238.302,103.992 244.735,103.877 250.74,103.928 L250.74,103.928 C262.665,104.061 272.761,104.876 280.624,106.167 L280.624,106.167 C288.406,107.472 294.587,109.158 297.925,111.241 L297.925,111.241 C299.579,112.281 300.726,113.403 300.315,114.672 L300.315,114.672 C300.157,115.301 299.637,115.967 298.237,116.674 L298.237,116.674 C296.926,117.373 294.587,118.146 290.632,118.819 L290.632,118.819 C294.989,118.334 298.962,117.446 301.584,116.617 L301.584,116.617 C304.23,115.774 305.926,114.948 307.219,114.156 L307.219,114.156 C309.581,112.583 310.316,111.128 310.03,109.796 L310.03,109.796 C309.316,107.142 305.241,104.844 297.721,103.083 L297.721,103.083 C290.236,101.327 279.316,100.054 264.337,99.773 L264.337,99.773 C262.359,99.734 260.309,99.714 258.192,99.714 L258.192,99.714 C252.354,99.714 246.027,99.863 239.41,100.157" fill="url(#Gradient_1)" id="path36"/>
    </g>
    <g clip-path="url(#Clip_2)" id="g40">
      <path d="M95.285,63.002 C93.865,60.065 92.544,56.958 91.32,53.678 C90.097,50.399 88.983,47.01 87.98,43.51 C86.977,40.012 86.145,36.439 85.485,32.792 C84.824,29.147 84.37,25.512 84.127,21.889 C83.587,22.673 82.535,24.385 80.969,27.029 C79.403,29.672 77.47,32.914 75.17,36.757 C72.869,40.599 70.299,44.905 67.462,49.677 C64.623,54.449 61.709,59.355 58.725,64.397 M60.279,64.63 C57.439,69.477 54.674,74.138 51.983,78.617 C49.29,83.094 46.833,87.133 44.604,90.729 C42.378,94.327 40.493,97.312 38.952,99.687 C37.41,102.059 36.345,103.564 35.758,104.2 C34.927,105.082 34.168,105.644 33.483,105.889 C32.798,106.134 32.259,106.134 31.867,105.889 C31.477,105.644 31.293,105.167 31.317,104.458 C31.342,103.748 31.697,102.854 32.382,101.779 C32.627,101.338 33.422,100.028 34.767,97.85 C36.114,95.673 37.839,92.883 39.943,89.482 C42.048,86.079 44.434,82.213 47.1,77.882 C49.768,73.55 52.57,69.012 55.507,64.264 M53.953,64.469 C55.763,61.533 57.574,58.597 59.385,55.66 C61.197,52.724 62.958,49.86 64.672,47.07 C66.384,44.28 68.037,41.602 69.627,39.032 C71.217,36.463 72.698,34.077 74.069,31.874 C77.299,26.687 80.357,21.768 83.245,17.118 C82.999,16.189 82.829,15.283 82.732,14.402 C82.633,13.668 82.633,12.909 82.732,12.125 C82.829,11.344 83.099,10.683 83.539,10.143 C83.979,9.655 84.75,9.214 85.852,8.822 C86.953,8.432 88.128,8.174 89.375,8.052 C90.624,7.929 91.835,7.967 93.009,8.162 C94.184,8.358 95.065,8.774 95.653,9.409 C95.947,9.753 96.203,10.768 96.424,12.457 C96.643,14.144 96.9,16.323 97.194,18.99 C97.488,21.658 97.879,24.704 98.369,28.13 C98.858,31.557 99.494,35.178 100.278,38.995 C101.06,42.813 102.063,46.717 103.287,50.704 C104.51,54.694 106.004,58.573 107.765,62.34 M108.357,63.278 C110.02,65.529 111.954,67.609 114.157,69.518 C115.184,70.399 115.82,71.255 116.065,72.088 C116.309,72.919 116.139,73.629 115.552,74.217 C114.964,74.803 113.948,75.182 112.504,75.354 C111.062,75.525 109.213,75.39 106.963,74.95 C105.395,74.657 103.622,73.543 101.64,71.61 C99.657,69.678 97.589,67.12 95.437,63.938" fill="#5C5C5B" id="path48"/>
    </g>
    <g clip-path="url(#Clip_3)" id="g52">
      <path d="M262.885,19.801 C255.324,23.638 247.267,27.127 238.25,30.466 L238.25,30.466 C228.691,34.047 217.815,37.509 205.926,40.758 L205.926,40.758 C192.952,44.298 179.32,47.357 165.407,49.853 L165.407,49.853 C150.394,52.556 134.291,54.659 118.836,55.936 L118.836,55.936 C114.934,56.262 110.974,56.547 107.062,56.782 L107.062,56.782 L104.271,56.942 L100.907,57.116 C99.407,57.186 97.296,57.284 95.562,57.343 L95.562,57.343 C91.295,57.496 87.032,57.573 82.896,57.573 L82.896,57.573 C80.156,57.573 77.415,57.539 74.752,57.473 L74.752,57.473 C62.437,57.127 51.28,56.021 42.489,54.274 L42.489,54.274 C33.725,52.503 27.364,50.342 24.097,48.028 L24.097,48.028 C21.57,46.227 21.82,45.349 21.919,44.993 L21.919,44.993 C21.964,44.792 22.099,44.177 23.624,43.339 L23.624,43.339 C24.697,42.716 26.935,41.804 31.49,41.009 L31.49,41.009 L31.175,38.783 C26.916,39.244 22.391,40.191 19.064,41.313 L19.064,41.313 C16.477,42.192 14.459,43.149 12.67,44.351 L12.67,44.351 C9.934,46.346 8.771,48.484 9.226,50.756 L9.226,50.756 C10.145,54.472 14.925,57.549 23.434,59.899 L23.434,59.899 C32.489,62.406 44.777,63.958 59.955,64.514 L59.955,64.514 C63.832,64.661 68.002,64.734 72.351,64.734 L72.351,64.734 C77.06,64.734 82.017,64.648 87.089,64.476 L87.089,64.476 C89.617,64.394 91.839,64.299 94.725,64.163 L94.725,64.163 L98.049,63.988 L101.935,63.759 C107.13,63.438 112.142,63.069 117.251,62.632 L117.251,62.632 C137.129,60.953 158.145,58.088 176.429,54.564 L176.429,54.564 C192.725,51.439 207.611,47.777 220.676,43.674 L220.676,43.674 C244.145,36.208 259.231,28.527 264.307,21.461 L264.307,21.461 L267.001,17.712 L262.885,19.801 z" fill="url(#Gradient_2)" id="path74"/>
    </g>
    <g clip-path="url(#Clip_4)" id="g78">
      <path d="M270.607,14.62 L262.376,18.798 C254.855,22.615 246.837,26.086 237.862,29.41 C228.326,32.982 217.484,36.435 205.631,39.673 C192.686,43.203 179.086,46.256 165.209,48.745 C150.236,51.441 134.169,53.54 118.744,54.815 C114.865,55.14 110.911,55.423 106.994,55.658 L104.2,55.82 L100.905,55.99 L100.78,55.995 C99.29,56.065 97.225,56.161 95.527,56.22 C91.27,56.371 87.022,56.448 82.899,56.448 C80.166,56.448 77.434,56.415 74.777,56.347 C62.532,56.003 51.439,54.905 42.704,53.171 C31.832,50.972 26.936,48.66 24.744,47.107 C23.077,45.918 22.985,45.361 22.984,45.355 L23.004,45.288 L23.019,45.233 C23.037,45.151 23.282,44.811 24.142,44.338 C25.184,43.733 27.291,42.883 31.682,42.117 L31.054,37.665 C26.654,38.142 22.154,39.082 18.707,40.246 C16.021,41.16 13.917,42.158 12.079,43.391 L12.041,43.415 L12.006,43.442 C8.885,45.718 7.575,48.236 8.111,50.926 L8.121,50.976 L8.134,51.026 C9.171,55.225 14.079,58.482 23.135,60.985 C32.272,63.513 44.647,65.08 59.916,65.638 C63.805,65.786 67.989,65.86 72.35,65.86 C77.074,65.86 82.046,65.772 87.127,65.601 C89.779,65.513 92.101,65.412 94.771,65.287 L98.102,65.111 L101.997,64.882 C107.182,64.562 112.201,64.193 117.349,63.753 C137.264,62.071 158.322,59.2 176.642,55.67 C192.976,52.537 207.905,48.863 221.01,44.75 C237.545,39.488 258.63,31.292 265.221,22.117 L270.607,14.62 z M263.394,20.805 C258.544,27.557 243.847,35.121 220.336,42.603 C208.44,46.337 193.847,50.078 176.216,53.46 C158.715,56.833 137.782,59.77 117.157,61.511 C111.997,61.952 106.965,62.321 101.865,62.636 L97.984,62.865 L94.665,63.04 C91.791,63.175 89.575,63.27 87.051,63.352 C81.967,63.523 77.042,63.61 72.35,63.61 C68.014,63.61 63.877,63.536 59.997,63.39 C43.737,62.795 31.874,61.068 23.734,58.816 C15.557,56.556 11.115,53.708 10.317,50.486 C9.995,48.867 10.78,47.121 13.331,45.26 C14.727,44.323 16.562,43.352 19.426,42.378 C22.265,41.42 26.571,40.413 31.296,39.901 C27.007,40.65 24.476,41.543 23.059,42.366 C21.545,43.197 20.986,43.996 20.821,44.752 C20.386,46.28 21.641,47.657 23.444,48.945 C27.084,51.521 33.809,53.667 42.266,55.377 C50.811,57.073 61.777,58.233 74.721,58.597 C77.372,58.663 80.1,58.698 82.899,58.698 C86.984,58.698 91.222,58.625 95.604,58.468 C97.362,58.408 99.514,58.307 101.02,58.236 L104.33,58.066 L107.127,57.905 C110.96,57.675 114.985,57.388 118.929,57.057 C134.791,55.746 150.786,53.628 165.606,50.96 C180.447,48.298 194.096,45.152 206.224,41.843 C218.356,38.528 229.226,35.048 238.644,31.52 C248.185,27.986 256.285,24.413 263.394,20.805" fill="#FFFFFF" id="path86"/>
      <path d="M125.813,78.79 L125.813,79.393 C125.813,84.273 128.369,87.908 133.483,90.295 C134.855,90.697 136.091,90.898 137.19,90.898 L137.919,90.898 C142.674,90.898 146.265,88.342 148.695,83.228 C149.096,81.685 149.298,80.492 149.298,79.647 L149.298,78.917 C149.298,74.058 146.699,70.424 141.5,68.014 C139.916,67.614 138.68,67.413 137.793,67.413 L137.318,67.413 C132.564,67.413 128.971,69.928 126.541,74.955 C126.055,76.372 125.813,77.649 125.813,78.79 M123.309,50.172 L123.658,50.172 C125.094,50.488 125.813,51.175 125.813,52.232 L125.813,67.793 C129.299,64.433 133.218,62.754 137.57,62.754 C141.775,62.754 145.599,64.349 149.044,67.539 C152.319,70.983 153.956,74.85 153.956,79.139 C153.956,85.288 151.04,90.127 145.209,93.654 C142.694,94.923 140.265,95.557 137.919,95.557 L136.969,95.557 C132.553,95.557 128.443,93.485 124.64,89.344 C122.315,86.238 121.154,82.562 121.154,78.315 L121.154,52.232 C121.154,51.175 121.871,50.488 123.309,50.172" fill="#5C5C5B" id="path90"/>
      <path d="M163.432,62.912 C164.954,63.292 165.714,63.968 165.714,64.941 L165.714,93.401 C165.714,94.585 164.954,95.303 163.432,95.556 L163.306,95.556 C162.101,95.556 161.351,94.763 161.055,93.18 L161.055,65.638 C161.246,63.821 162.037,62.912 163.432,62.912" fill="#5C5C5B" id="path94"/>
      <path d="M176.331,63.134 C177.831,63.514 178.581,64.19 178.581,65.162 L178.581,67.762 C182.005,64.677 185.744,63.134 189.801,63.134 C194.26,63.134 198.21,64.993 201.654,68.712 C204.169,71.818 205.426,75.083 205.426,78.505 L205.426,93.559 C205.426,94.595 204.676,95.26 203.176,95.557 L203.049,95.557 C201.549,95.282 200.799,94.532 200.799,93.305 L200.799,80.058 C200.799,74.122 198.243,70.213 193.129,68.332 C191.883,68.014 190.773,67.857 189.801,67.857 L189.453,67.857 C185.163,67.857 181.846,70.075 179.501,74.512 C178.888,75.864 178.581,78.03 178.581,81.009 L178.581,93.433 C178.581,94.595 177.831,95.303 176.331,95.557 L176.205,95.557 C175,95.557 174.25,94.764 173.954,93.179 L173.954,65.859 C174.145,64.043 174.936,63.134 176.331,63.134" fill="#5C5C5B" id="path98"/>
      <path d="M215.029,62.912 C216.55,63.292 217.311,63.968 217.311,64.941 L217.311,93.401 C217.311,94.585 216.55,95.303 215.029,95.556 L214.903,95.556 C213.698,95.556 212.948,94.763 212.653,93.18 L212.653,65.638 C212.841,63.821 213.634,62.912 215.029,62.912" fill="#5C5C5B" id="path102"/>
      <path d="M231.636,51.503 L232.08,51.503 C233.475,51.799 234.172,52.421 234.172,53.373 L234.172,63.831 L238.957,63.831 L240.003,63.704 C241.081,63.704 241.81,64.486 242.19,66.05 C242.19,67.106 241.535,67.878 240.225,68.364 L238.482,68.236 L234.172,68.236 L234.172,85.319 C234.172,88.299 235.143,90.126 237.087,90.803 L239.75,91.024 L241.048,91.024 C242.063,91.024 242.718,91.764 243.015,93.243 L243.015,93.338 C242.761,94.816 242.021,95.556 240.796,95.556 L238.355,95.556 C234.657,95.556 231.911,93.539 230.115,89.503 C229.798,88.51 229.64,87.348 229.64,86.016 L229.64,68.236 L227.326,68.236 L225.456,68.364 C224.146,67.899 223.491,67.128 223.491,66.05 C223.745,64.571 224.442,63.831 225.582,63.831 L225.582,63.704 L226.756,63.831 L229.64,63.831 L229.64,54.07 C229.83,52.359 230.496,51.503 231.636,51.503" fill="#5C5C5B" id="path106"/>
      <path d="M170.214,51.28 C170.214,47.449 167.108,44.343 163.277,44.343 C159.445,44.343 156.339,47.449 156.339,51.28 C156.339,55.112 159.445,58.218 163.277,58.218 C167.108,58.218 170.214,55.112 170.214,51.28" fill="#5C5C5B" id="path110"/>
      <path d="M222.714,104.905 C222.714,101.074 219.608,97.968 215.777,97.968 C211.945,97.968 208.839,101.074 208.839,104.905 C208.839,108.737 211.945,111.843 215.777,111.843 C219.608,111.843 222.714,108.737 222.714,104.905" fill="#FFFFFF" id="path114"/>
      <path d="M222.714,104.905 C222.714,101.074 219.608,97.968 215.777,97.968 C211.945,97.968 208.839,101.074 208.839,104.905 C208.839,108.737 211.945,111.843 215.777,111.843 C219.608,111.843 222.714,108.737 222.714,104.905 z" fill-opacity="0" stroke="#5D5C5B" stroke-width="1.25" stroke-miterlimit="10" id="path118"/>
    </g>
  </g>
  <g id="dev">
    <path d="M241.107,118.235 L241.107,117.862 Q241.107,112.576 241.107,107.29 C241.103,107.087 241.119,106.885 241.153,106.685 C241.293,105.968 241.849,105.509 242.564,105.501 C243.272,105.486 243.892,105.975 244.041,106.667 C244.08,106.866 244.099,107.068 244.096,107.271 Q244.1,115.747 244.096,124.223 C244.096,129.657 240.323,134.142 234.977,135.079 C229.122,136.106 223.322,131.982 222.382,126.123 C221.44,120.245 225.158,114.789 230.984,113.562 C232.919,113.153 234.863,113.224 236.726,113.97 C238.634,114.735 239.936,116.158 240.883,117.942 C240.937,118.043 240.992,118.142 241.047,118.243 z M233.15,116.371 C228.754,116.38 225.189,119.955 225.206,124.333 C225.222,128.677 228.82,132.246 233.176,132.24 C237.602,132.233 241.118,128.708 241.108,124.29 C241.096,119.856 237.587,116.363 233.15,116.373 z" fill="#5C5C5B"/>
    <path d="M250.425,125.655 C250.52,126.486 250.763,127.294 251.142,128.039 C252.581,130.925 255.602,132.595 258.818,132.34 C260.016,132.247 261.091,131.861 262.13,131.291 C262.99,130.818 263.834,131.085 264.251,131.917 C264.625,132.663 264.395,133.422 263.666,133.856 C261.817,134.96 259.784,135.329 257.677,135.208 C253.359,134.96 250.139,132.902 248.209,129.031 C244.993,122.58 249.043,114.735 256.148,113.512 C259.042,113.012 262.017,113.689 264.41,115.392 C266.804,117.096 268.417,119.685 268.892,122.584 C268.962,123.056 269.007,123.532 269.026,124.009 C269.086,125.056 268.52,125.653 267.468,125.657 Q259.189,125.657 250.909,125.657 z M250.366,123.122 L265.962,123.122 C265.545,119.053 261.947,116.114 257.923,116.213 C253.34,116.326 250.578,120.034 250.368,123.122 z" fill="#5C5C5B"/>
    <path d="M279.793,130.03 C279.865,129.877 279.914,129.773 279.957,129.666 L286.127,114.524 C286.46,113.707 287.075,113.316 287.808,113.449 C288.781,113.623 289.309,114.568 288.94,115.522 C288.609,116.379 288.243,117.222 287.89,118.069 Q284.593,125.998 281.292,133.924 C281.223,134.089 281.142,134.248 281.049,134.401 C280.722,134.935 280.261,135.228 279.616,135.144 C279,135.064 278.601,134.703 278.368,134.144 Q277.76,132.692 277.158,131.237 Q273.924,123.439 270.688,115.638 C270.316,114.74 270.592,113.901 271.384,113.56 C272.221,113.201 273.046,113.575 273.427,114.504 Q274.824,117.912 276.217,121.325 Q277.915,125.482 279.613,129.64 C279.661,129.753 279.717,129.864 279.793,130.03 z" fill="#5C5C5B"/>
  </g>
</svg>
